<?xml version="1.0" encoding="UTF-8"?>
<svg version="1.1" xmlns="http://www.w3.org/2000/svg" width="1024" height="1024">
<path d="M0 0 C337.92 0 675.84 0 1024 0 C1024 337.92 1024 675.84 1024 1024 C686.08 1024 348.16 1024 0 1024 C0 686.08 0 348.16 0 0 Z " fill="#222629" transform="translate(0,0)"/>
<path d="M0 0 C1.52251625 -0.0129007 1.52251625 -0.0129007 3.07579041 -0.02606201 C4.18858871 -0.03032196 5.30138702 -0.03458191 6.44790649 -0.03897095 C8.20678947 -0.05123718 8.20678947 -0.05123718 10.00120544 -0.06375122 C13.88918703 -0.0886049 17.77716099 -0.10527206 21.66519165 -0.11953735 C23.0045332 -0.12489824 24.34387468 -0.13027575 25.68321609 -0.13566971 C31.25410467 -0.15729001 36.82499038 -0.17602719 42.39591026 -0.1872921 C50.37642818 -0.20353685 58.3564597 -0.23673617 66.33679426 -0.29369295 C71.95047462 -0.33239192 77.56402486 -0.35192452 83.17783511 -0.35721266 C86.52997565 -0.36086554 89.88159694 -0.37287875 93.23359299 -0.4053154 C96.97337904 -0.43681746 100.71192969 -0.4370256 104.45181274 -0.42959595 C106.11493752 -0.45420395 106.11493752 -0.45420395 107.81166077 -0.47930908 C115.29088364 -0.4183521 115.29088364 -0.4183521 119.26690674 2.4677124 C121.66002422 6.01469396 121.84157161 7.96115413 121.07925415 12.15390015 C118.04760091 15.26748996 115.31626752 17.02608154 110.89684486 17.27859879 C109.61653672 17.27853647 109.61653672 17.27853647 108.31036377 17.2784729 C107.32900955 17.28103592 106.34765533 17.28359894 105.33656311 17.28623962 C104.26116776 17.28413986 103.1857724 17.2820401 102.07778931 17.27987671 C100.94421494 17.28174484 99.81064056 17.28361298 98.64271545 17.28553772 C96.17746839 17.28954547 93.71221761 17.2916169 91.24696732 17.29199982 C85.33583115 17.29584847 79.42479048 17.32192743 73.51370692 17.34521627 C64.43560633 17.38031747 55.35762357 17.40687745 46.27944946 17.40438843 C39.5001445 17.40262963 32.72130787 17.42690407 25.9421196 17.46627045 C23.35614445 17.47675374 20.7701168 17.47823749 18.18413162 17.4706192 C14.5687523 17.46103006 10.95476183 17.48212043 7.33950806 17.51034546 C5.73248772 17.49505043 5.73248772 17.49505043 4.09300232 17.47944641 C-1.92188163 17.55209948 -1.92188163 17.55209948 -7.06201172 20.50662231 C-9.48633039 23.95942654 -10.04520217 26.46264858 -10.07896423 30.57679749 C-10.09364746 31.9334552 -10.09364746 31.9334552 -10.10862732 33.31752014 C-10.11438278 34.30726334 -10.12013824 35.29700653 -10.12606812 36.31674194 C-10.14091751 37.88284714 -10.14091751 37.88284714 -10.15606689 39.48059082 C-10.1877017 42.93807696 -10.21244725 46.39557686 -10.2371521 49.8531189 C-10.25771991 52.24780132 -10.27871633 54.6424801 -10.30012512 57.03715515 C-10.35536363 63.34508312 -10.40476511 69.65304395 -10.45297241 75.96102905 C-10.50317441 82.39579193 -10.55886727 88.830507 -10.61410522 95.26522827 C-10.72170858 107.89474445 -10.82333514 120.52430145 -10.92074585 133.15390015 C-6.70263087 133.0850252 -2.4854758 132.99706277 1.73184204 132.89144897 C3.16630043 132.85821014 4.60088928 132.8301748 6.03555298 132.8074646 C8.09886222 132.77389744 10.16097718 132.72158601 12.2237854 132.6656189 C14.08547363 132.62634277 14.08547363 132.62634277 15.98477173 132.58627319 C19.01827773 132.38570057 19.01827773 132.38570057 20.98466492 130.91264343 C22.39901586 128.64011951 22.45125462 127.17443403 22.44815063 124.50228882 C22.45503403 123.56088547 22.46191742 122.61948212 22.4690094 121.64955139 C22.4628511 120.63391617 22.45669281 119.61828094 22.4503479 118.5718689 C22.4677339 116.42147671 22.48531824 114.27108612 22.50308228 112.12069702 C22.51314867 108.73028582 22.51675343 105.33997996 22.51504517 101.94955444 C22.51861961 98.67750646 22.54598497 95.40627197 22.5753479 92.1343689 C22.56716537 91.12480637 22.55898285 90.11524384 22.55055237 89.0750885 C22.61347157 83.11354967 23.11557676 79.69881948 27.07925415 75.15390015 C32.70976491 70.80802048 39.68921583 71.8234768 46.45425415 71.96640015 C48.27376587 71.98670288 48.27376587 71.98670288 50.1300354 72.00741577 C53.11356622 72.04265432 56.09617873 72.0919249 59.07925415 72.15390015 C59.49497681 70.77911499 59.49497681 70.77911499 59.9190979 69.3765564 C62.28283487 62.81062038 67.14753933 58.19691349 73.32144165 55.03671265 C80.34405737 52.78867985 88.96725692 52.69519748 95.70425415 55.90390015 C96.85123449 56.61983388 97.97976153 57.36698149 99.07925415 58.15390015 C99.96612915 58.71077515 100.85300415 59.26765015 101.76675415 59.84140015 C106.82026818 64.89491418 110.19254382 71.60160762 110.32925415 78.77890015 C110.21779256 86.43631152 108.28327977 92.96282821 102.91519165 98.5796814 C95.87697077 104.61458143 88.88953678 106.03966499 79.7081604 105.6968689 C72.15358158 104.56652826 67.14407088 100.85315387 62.45425415 94.96640015 C60.54591905 92.29367668 60.07925415 91.52801879 60.07925415 88.15390015 C52.81925415 88.15390015 45.55925415 88.15390015 38.07925415 88.15390015 C38.1256604 91.23733765 38.17206665 94.32077515 38.21987915 97.49765015 C38.25112494 100.50284176 38.27538413 103.50801488 38.29898071 106.51327515 C38.31902574 108.59278539 38.34626928 110.67223977 38.38101196 112.7515564 C38.42984363 115.75039502 38.45229443 118.74848477 38.46987915 121.74765015 C38.49052429 122.66880615 38.51116943 123.58996216 38.53244019 124.53903198 C38.53484634 131.54991834 36.93206629 136.78002643 32.36831665 142.17733765 C31.81917603 142.62335327 31.2700354 143.0693689 30.70425415 143.52890015 C29.88827759 144.22112671 29.88827759 144.22112671 29.05581665 144.92733765 C23.67382803 148.26714876 18.30393759 148.47285083 12.17300415 148.48983765 C11.33007812 148.49649445 10.4871521 148.50315125 9.61868286 148.51000977 C7.84368052 148.52009547 6.06864058 148.52482806 4.29360962 148.52450562 C1.58740687 148.52888695 -1.11717399 148.56527049 -3.8230896 148.6031189 C-5.55355281 148.60898643 -7.28402371 148.61295625 -9.01449585 148.61483765 C-9.8177832 148.62920868 -10.62107056 148.64357971 -11.44869995 148.65838623 C-16.72222886 148.61574521 -19.79781068 147.73277316 -23.92074585 144.15390015 C-27.93636487 139.35874453 -27.35046684 134.12776971 -27.32479858 128.18832397 C-27.33166183 127.08199615 -27.33852509 125.97566833 -27.34559631 124.83581543 C-27.36390071 121.17739024 -27.36002009 117.51939259 -27.3543396 113.8609314 C-27.35890093 111.31370403 -27.36420635 108.76647789 -27.370224 106.21925354 C-27.37916326 100.87701853 -27.37695836 95.53493892 -27.36679077 90.19271851 C-27.35533477 84.03796485 -27.36934357 77.88364824 -27.39618725 71.72895223 C-27.42111507 65.78891171 -27.4235044 59.84900558 -27.41707039 53.90891075 C-27.4169174 51.39123497 -27.42294318 48.87355069 -27.43536186 46.35590553 C-27.45031611 42.82576131 -27.43955944 39.29656451 -27.42245483 35.76644897 C-27.4321228 34.73492203 -27.44179077 33.70339508 -27.45175171 32.64060974 C-27.35335728 22.89386784 -24.5586615 15.04534482 -17.85824585 7.91171265 C-12.55368957 3.09911118 -7.24189233 0.04569914 0 0 Z " fill="#E53E2C" transform="translate(265.9207458496094,410.8460998535156)"/>
<path d="M0 0 C8.22124322 4.72404199 13.63808303 11.09535029 16.27734375 20.30859375 C17.68013305 31.49635667 17.10093019 41.48076083 11.52734375 51.43359375 C5.80434237 58.74631773 -1.08706169 63.36751087 -10.421875 64.69140625 C-18.81045655 65.05040403 -26.00783559 62.69168625 -33.03515625 58.18359375 C-41.62876477 48.99043114 -44.18469684 39.42852172 -43.96484375 27.03125 C-43.36528768 17.81549297 -40.40222997 10.80227951 -33.72265625 4.30859375 C-23.37989295 -3.16205167 -11.9756431 -5.60933688 0 0 Z " fill="#E6402E" transform="translate(581.72265625,410.69140625)"/>
<path d="M0 0 C7.88017682 4.2251783 13.29756072 9.68813752 17.0546875 17.859375 C19.91176888 27.41078576 19.52144011 38.8708237 15.515625 48.0390625 C11.30415779 55.30266044 6.09381893 60.59415306 -1.875 63.4375 C-4.90140202 63.95789352 -7.810343 64.00025748 -10.875 63.9375 C-12.00808594 63.96070313 -12.00808594 63.96070313 -13.1640625 63.984375 C-20.78671552 63.93198563 -27.4772891 60.8352109 -32.875 55.4375 C-40.25136663 44.9339954 -41.86298218 35.08117073 -40.875 22.4375 C-38.89286885 13.38141576 -33.34407061 6.46631381 -25.625 1.5 C-18.16123303 -2.90362251 -8.03371053 -3.28651794 0 0 Z " fill="#E3402D" transform="translate(526.875,493.5625)"/>
<path d="M0 0 C4.29 0 8.58 0 13 0 C16.5669 13.28101063 19.87377692 26.60850678 23 40 C23.24234375 39.030625 23.4846875 38.06125 23.734375 37.0625 C26.82291667 24.70833333 29.91145833 12.35416667 33 0 C37.62 0 42.24 0 47 0 C47.2673999 1.08007324 47.5347998 2.16014648 47.81030273 3.27294922 C48.80125082 7.27289088 49.79529394 11.27205794 50.7902832 15.27099609 C51.22081875 17.00320741 51.65051008 18.73562878 52.0793457 20.46826172 C52.69521804 22.95595875 53.31410378 25.44288922 53.93359375 27.9296875 C54.12529648 28.70682098 54.31699921 29.48395447 54.51451111 30.28463745 C55.47209097 34.24218755 55.47209097 34.24218755 57 38 C59.97 25.46 62.94 12.92 66 0 C70.29 0 74.58 0 79 0 C78.37184801 4.97621688 77.39608776 9.75132777 76.109375 14.6015625 C75.92428879 15.31268692 75.73920258 16.02381134 75.54850769 16.75648499 C75.15474382 18.26859712 74.75937829 19.78029296 74.36251831 21.29159546 C73.33348265 25.21173374 72.31684039 29.13507524 71.30078125 33.05859375 C71.10090103 33.82978043 70.90102081 34.6009671 70.69508362 35.39552307 C68.32595773 44.56445674 66.13250125 53.77344938 64 63 C59.38 63 54.76 63 50 63 C49.55346069 61.32659546 49.55346069 61.32659546 49.09790039 59.61938477 C47.9961801 55.49427748 46.89001169 51.37037413 45.7824707 47.24682617 C45.30305825 45.45939316 44.82486502 43.67163268 44.34790039 41.88354492 C43.66349783 39.3186344 42.97476925 36.75492006 42.28515625 34.19140625 C42.07157974 33.3872377 41.85800323 32.58306915 41.63795471 31.75453186 C40.89663572 28.08082478 40.89663572 28.08082478 39 25 C38.69707031 26.23492188 38.39414062 27.46984375 38.08203125 28.7421875 C35.24914782 40.21964035 32.22772322 51.62742626 29 63 C24.71 63 20.42 63 16 63 C13.76199296 57.36330031 12.13542875 51.84880711 10.8125 45.9375 C9.26589006 39.2133789 7.63716078 32.51659685 5.8984375 25.83984375 C5.71643295 25.14062302 5.53442841 24.44140228 5.34690857 23.72099304 C4.61263379 20.90559458 3.87647788 18.09072496 3.13369751 15.27755737 C2.61096134 13.29776871 2.09238626 11.31692589 1.57421875 9.3359375 C1.27088623 8.18657715 0.96755371 7.0372168 0.6550293 5.85302734 C0 3 0 3 0 0 Z " fill="#E03F2D" transform="translate(548,493)"/>
<path d="M0 0 C31 0 31 0 39 4 C44.91220654 10.16378979 45.30264791 14.56892331 45.2109375 22.83203125 C44.90816487 27.37922761 43.85644536 30.23761454 40.53515625 33.390625 C39.06367569 34.64264269 37.53380942 35.82516725 36 37 C35.34 37.66 34.68 38.32 34 39 C34.63615234 40.02939697 34.63615234 40.02939697 35.28515625 41.07958984 C37.19469931 44.17525292 39.09742431 47.27505042 41 50.375 C41.66773438 51.45523438 42.33546875 52.53546875 43.0234375 53.6484375 C43.65507813 54.6796875 44.28671875 55.7109375 44.9375 56.7734375 C45.81728516 58.20308838 45.81728516 58.20308838 46.71484375 59.66162109 C48 62 48 62 48 64 C43.25026706 65.4099657 38.52682212 66.40307195 34 64 C30.43000568 59.77321147 27.99665089 54.88197778 25.61645508 49.91357422 C25.12685303 48.92244629 24.63725098 47.93131836 24.1328125 46.91015625 C23.71918457 45.99371338 23.30555664 45.07727051 22.87939453 44.13305664 C20.58185123 41.05056908 20.58185123 41.05056908 13 41 C13 48.59 13 56.18 13 64 C8.71 64 4.42 64 0 64 C0 42.88 0 21.76 0 0 Z " fill="#E6412E" transform="translate(484,410)"/>
<path d="M0 0 C4.29 0 8.58 0 13 0 C16.1780221 3.44734601 17.83876392 5.95985147 20 10 C21.19434576 11.96125235 22.42011167 13.9004871 23.6496582 15.83984375 C24.87535443 17.77679233 26.07701884 19.72695349 27.27734375 21.6796875 C30.74778021 27.18657807 34.38934172 32.58401258 38 38 C38.33 25.46 38.66 12.92 39 0 C43.29 0 47.58 0 52 0 C52 21.12 52 42.24 52 64 C40 64 40 64 37.37255859 62.03320312 C36.84484863 61.12505859 36.31713867 60.21691406 35.7734375 59.28125 C35.15049805 58.27578125 34.52755859 57.2703125 33.88574219 56.234375 C33.26344727 55.16703125 32.64115234 54.0996875 32 53 C30.60757466 50.91952967 29.20380679 48.84660801 27.7890625 46.78125 C26.3986398 44.68909427 25.01062543 42.59533602 23.625 40.5 C22.91472656 39.43007813 22.20445312 38.36015625 21.47265625 37.2578125 C20.17030647 35.29563844 18.86891366 33.33282858 17.56884766 31.36914062 C16.38233425 29.57736875 15.1920584 27.7880876 14 26 C13.67 38.54 13.34 51.08 13 64 C8.71 64 4.42 64 0 64 C0 42.88 0 21.76 0 0 Z " fill="#E4412F" transform="translate(608,410)"/>
<path d="M0 0 C29 0 29 0 38 4 C42.65980222 8.77928433 44.28927531 12.73273905 44.3125 19.375 C44.22387092 24.32161062 44.0368039 27.91602234 41 32 C38.45269027 34.29257876 35.85081838 36.09945441 33 38 C33.63615234 39.08269165 33.63615234 39.08269165 34.28515625 40.18725586 C35.85232022 42.85681636 37.41754479 45.5275012 38.98144531 48.19897461 C39.99393754 49.92715225 41.00868103 51.65401029 42.0234375 53.38085938 C42.65507812 54.46044922 43.28671875 55.54003906 43.9375 56.65234375 C44.52402344 57.65257568 45.11054688 58.65280762 45.71484375 59.68334961 C47 62 47 62 47 63 C42.38 63 37.76 63 33 63 C30.99479003 59.54459354 28.99564852 56.08592199 27 52.625 C26.42765625 51.64015625 25.8553125 50.6553125 25.265625 49.640625 C24.72421875 48.69960938 24.1828125 47.75859375 23.625 46.7890625 C23.12226563 45.91975098 22.61953125 45.05043945 22.1015625 44.15478516 C21 42 21 42 21 40 C18.36 40 15.72 40 13 40 C13 47.59 13 55.18 13 63 C8.71 63 4.42 63 0 63 C0 42.21 0 21.42 0 0 Z " fill="#E33F2D" transform="translate(434,493)"/>
<path d="M0 0 C3.96 0 7.92 0 12 0 C12 8.25 12 16.5 12 25 C19.92 25 27.84 25 36 25 C36 16.75 36 8.5 36 0 C39.96 0 43.92 0 48 0 C48 20.79 48 41.58 48 63 C44.04 63 40.08 63 36 63 C36 54.42 36 45.84 36 37 C28.08 37 20.16 37 12 37 C12 45.58 12 54.16 12 63 C8.04 63 4.08 63 0 63 C0 42.21 0 21.42 0 0 Z " fill="#E53F2C" transform="translate(808,493)"/>
<path d="M0 0 C11.88 0 23.76 0 36 0 C36 3.96 36 7.92 36 12 C28.08 12 20.16 12 12 12 C12 16.29 12 20.58 12 25 C19.59 25 27.18 25 35 25 C35 28.96 35 32.92 35 37 C27.41 37 19.82 37 12 37 C12 41.62 12 46.24 12 51 C20.25 51 28.5 51 37 51 C37 54.96 37 58.92 37 63 C24.79 63 12.58 63 0 63 C0 42.21 0 21.42 0 0 Z " fill="#DD3C2A" transform="translate(700,493)"/>
<path d="M0 0 C5.01089899 2.70764367 8.74227053 5.95850862 11.2265625 11.203125 C11.2265625 12.193125 11.2265625 13.183125 11.2265625 14.203125 C9.97992919 14.71146091 8.72906863 15.20943645 7.4765625 15.703125 C6.78046875 15.9815625 6.084375 16.26 5.3671875 16.546875 C3.2265625 17.203125 3.2265625 17.203125 -0.7734375 17.203125 C-3.3984375 14.765625 -3.3984375 14.765625 -5.7734375 12.203125 C-10.16106724 10.00931013 -16.01859943 10.65717538 -20.5859375 12.078125 C-25.3530698 16.70905352 -28.05512346 22.61224484 -28.2734375 29.265625 C-27.86343972 35.96225543 -26.55387438 41.88842206 -21.7109375 46.765625 C-17.98975909 49.60381192 -14.73217065 49.90078345 -10.140625 49.59375 C-6.82893642 49.04726674 -4.51681456 48.14356244 -1.7734375 46.203125 C0.10787819 43.65523647 0.10787819 43.65523647 1.2265625 41.203125 C4.8565625 42.193125 8.4865625 43.183125 12.2265625 44.203125 C10.92337714 50.71905178 7.75389373 54.55374185 2.453125 58.53515625 C-5.17976988 63.14597736 -12.17958953 63.88965216 -20.7734375 62.203125 C-28.26309806 59.79806821 -33.94305208 54.41699444 -38.0859375 47.828125 C-42.52765048 38.28666749 -43.49231523 27.51262385 -40.1484375 17.453125 C-36.2128128 7.95569734 -30.97758867 2.78143772 -21.7734375 -1.796875 C-14.35769781 -4.26878823 -7.01429569 -3.16199996 0 0 Z " fill="#E13F2D" transform="translate(786.7734375,494.796875)"/>
<path d="M0 0 C12.87 0 25.74 0 39 0 C39 3.96 39 7.92 39 12 C30.42 12 21.84 12 13 12 C13 16.62 13 21.24 13 26 C20.59 26 28.18 26 36 26 C36 29.96 36 33.92 36 38 C28.41 38 20.82 38 13 38 C13 46.58 13 55.16 13 64 C8.71 64 4.42 64 0 64 C0 42.88 0 21.76 0 0 Z " fill="#E63E2C" transform="translate(434,410)"/>
<path d="M0 0 C15.51 0 31.02 0 47 0 C47 4.29 47 8.58 47 13 C41.39 13 35.78 13 30 13 C30 29.83 30 46.66 30 64 C25.71 64 21.42 64 17 64 C17 47.17 17 30.34 17 13 C11.39 13 5.78 13 0 13 C0 8.71 0 4.42 0 0 Z " fill="#E7412E" transform="translate(669,410)"/>
<path d="M0 0 C14.85 0 29.7 0 45 0 C45 3.96 45 7.92 45 12 C39.72 12 34.44 12 29 12 C29 28.83 29 45.66 29 63 C24.71 63 20.42 63 16 63 C16 46.17 16 29.34 16 12 C10.72 12 5.44 12 0 12 C0 8.04 0 4.08 0 0 Z " fill="#E33E2C" transform="translate(648,493)"/>
<path d="M0 0 C4.24261114 2.36759947 7.23075801 5.09062762 9.1484375 9.59375 C10.87612269 16.69885535 11.18868024 25.10151402 8.0859375 31.8515625 C5.51999093 36.0371491 2.44609636 38.60650955 -2.2265625 40.1640625 C-7.19516565 40.68572307 -11.08175229 40.7364676 -15.6015625 38.4765625 C-21.27709523 33.47668843 -23.73224711 29.17462303 -24.484375 21.55078125 C-24.74736001 15.21284262 -24.05824914 10.3315665 -20.2265625 5.1640625 C-14.67774349 -0.64553652 -7.6983031 -2.89024011 0 0 Z " fill="#212428" transform="translate(575.2265625,421.8359375)"/>
<path d="M0 0 C4.47870656 2.15937638 7.18198188 4.92952939 10 9 C12.1155179 15.34655369 12.23053251 24.34553061 10.09375 30.69140625 C7.58199055 34.93402557 4.53860968 37.98284014 0 40 C-5.30512948 40.76013796 -9.55915262 40.68112785 -14.4375 38.375 C-19.46312528 33.7171034 -21.738518 29.51929058 -22.23828125 22.79296875 C-22.43332767 13.31781878 -21.62685075 9.26154964 -15.5 2.0625 C-11.02795312 -1.38280142 -5.31829069 -0.78897719 0 0 Z " fill="#202428" transform="translate(521,505)"/>
<path d="M0 0 C3.55781497 3.1392485 7.68950612 6.8763136 8.3984375 11.7578125 C8.64104275 17.11379003 7.8583049 20.7344329 4.7421875 25.14453125 C1.03576453 29.11058289 -3.10613746 30.59071852 -8.375 31.4375 C-13.76505439 30.57124126 -17.91806424 28.44587639 -21.26953125 24.04296875 C-23.75544401 19.58940774 -25.14341677 14.9392013 -23.875 9.875 C-18.86084341 -0.20183728 -11.10081561 -4.34379741 0 0 Z " fill="#E04534" transform="translate(691.875,600.125)"/>
<path d="M0 0 C14 0 14 0 20 3 C23.20925081 6.43315203 24.84920361 9.92557569 25.5 14.5625 C24.64569697 20.43583335 22.78099084 25.31180707 18 29 C11.90015327 32.04992336 7.4233266 31 0 31 C0 20.77 0 10.54 0 0 Z " fill="#DD4837" transform="translate(459,599)"/>
<path d="M0 0 C1.98 0 3.96 0 6 0 C6.67363372 2.72761511 7.33909444 5.456799 8 8.1875 C8.19078125 8.95642578 8.3815625 9.72535156 8.578125 10.51757812 C9.51623421 14.42078253 10.25957208 17.95229795 10 22 C10.66 22 11.32 22 12 22 C11.95875 21.00871094 11.9175 20.01742187 11.875 18.99609375 C12.00917836 14.70657916 12.81204768 11.15210613 14 7.0625 C14.28617188 6.03672852 14.28617188 6.03672852 14.578125 4.99023438 C15.04404937 3.32455474 15.52088411 1.66193325 16 0 C17.98 0 19.96 0 22 0 C22.67617524 2.37265061 23.34108226 4.74755355 24 7.125 C24.19078125 7.79015625 24.3815625 8.4553125 24.578125 9.140625 C25.69208455 13.1986205 26.20950232 16.79685974 26 21 C26.66 21 27.32 21 28 21 C28.103125 19.7625 28.20625 18.525 28.3125 17.25 C28.95168106 11.35637468 30.46277997 5.71381786 32 0 C33.98 0 35.96 0 38 0 C36.67976697 6.93729238 35.11854568 13.78259689 33.375 20.625 C33.03082031 21.98818359 33.03082031 21.98818359 32.6796875 23.37890625 C32.1219792 25.58650161 31.56206087 27.7935096 31 30 C28.69 30 26.38 30 24 30 C23.32506659 27.77332235 22.66036956 25.54354023 22 23.3125 C21.62875 22.07113281 21.2575 20.82976563 20.875 19.55078125 C20.12296543 16.4989981 19.80965101 14.11101638 20 11 C19.34 11 18.68 11 18 11 C17.896875 12.093125 17.79375 13.18625 17.6875 14.3125 C17.0310434 19.68965184 15.516408 24.81178648 14 30 C11.69 30 9.38 30 7 30 C5.82512185 25.75222625 4.661523 21.50144326 3.5 17.25 C3.16613281 16.0434375 2.83226562 14.836875 2.48828125 13.59375 C2.17246094 12.43359375 1.85664063 11.2734375 1.53125 10.078125 C1.23798828 9.00981445 0.94472656 7.94150391 0.64257812 6.84082031 C0 4 0 4 0 0 Z " fill="#E54432" transform="translate(237,599)"/>
<path d="M0 0 C14 0 14 0 19 3 C21 5 21 5 21.4375 8.75 C21.35799743 13.590823 19.3405995 15.6594005 16 19 C16.433125 19.71027344 16.86625 20.42054688 17.3125 21.15234375 C17.869375 22.07144531 18.42625 22.99054687 19 23.9375 C19.556875 24.85402344 20.11375 25.77054688 20.6875 26.71484375 C22 29 22 29 22 30 C19.375 30.625 19.375 30.625 16 30 C14.20627538 27.53362864 12.85076316 25.01382092 11.4921875 22.28515625 C10.06556978 19.53494409 10.06556978 19.53494409 6 19 C6 22.96 6 26.92 6 31 C4.02 31 2.04 31 0 31 C0 20.77 0 10.54 0 0 Z " fill="#BE382A" transform="translate(354,599)"/>
<path d="M0 0 C2.64350188 1.09597142 4.63056295 2.35169596 7 4 C7 4.66 7 5.32 7 6 C7.66 6 8.32 6 9 6 C9 6.66 9 7.32 9 8 C6.8125 8.75 6.8125 8.75 4 9 C3.21625 8.360625 2.4325 7.72125 1.625 7.0625 C-0.91523048 4.72326639 -0.91523048 4.72326639 -4.5 4.4375 C-8.8749956 5.14062429 -10.25376582 6.60759307 -13 10 C-14.23714895 12.4742979 -13.95581362 13.71499333 -13.625 16.4375 C-13.53476562 17.21996094 -13.44453125 18.00242187 -13.3515625 18.80859375 C-13.03348872 21.16946986 -13.03348872 21.16946986 -12 24 C-9.23952457 24.92015848 -7.36637731 25.19267245 -4.5 25.25 C-3.33984375 25.28867187 -3.33984375 25.28867187 -2.15625 25.328125 C0.54631614 24.91686494 1.35576978 24.14551992 3 22 C3.33 21.01 3.66 20.02 4 19 C1.03 18.67 -1.94 18.34 -5 18 C-5 16.35 -5 14.7 -5 13 C-0.38 13 4.24 13 9 13 C9 18.94 9 24.88 9 31 C7.68 31 6.36 31 5 31 C4.67 30.01 4.34 29.02 4 28 C3.360625 28.495 2.72125 28.99 2.0625 29.5 C-2.07653553 31.52728271 -5.4693866 31.69640171 -10 31 C-14.88186134 28.78934581 -17.18734501 25.92346604 -19.30859375 21.1484375 C-20.82100753 16.44884665 -20.5086282 12.5258846 -18.9375 7.8125 C-14.10114891 0.79199036 -8.46022695 -1.52716557 0 0 Z " fill="#E34A38" transform="translate(646,599)"/>
<path d="M0 0 C3.0220794 1.74450506 5.41651082 3.83302164 7 7 C7.53118173 10.79415519 7.85089348 14.46331178 5.953125 17.890625 C3.63400553 20.70085213 1.72015775 22.75917792 -1.953125 23.2734375 C-6.24672199 23.46329043 -9.09582964 23.4342668 -12.5 20.625 C-15.87216377 17.08422804 -16.40026457 15.02910223 -16.35546875 10.1015625 C-15.72310439 6.36296879 -13.67682885 4.61457701 -11 2 C-7.3112362 -0.45917586 -4.2815571 -0.81591937 0 0 Z " fill="#202428" transform="translate(354,479)"/>
<path d="M0 0 C1.98 0 3.96 0 6 0 C8.79763934 6.04290098 11.31066213 12.18069857 13.75 18.375 C14.06783447 19.17212402 14.38566895 19.96924805 14.71313477 20.79052734 C15.00889404 21.5480127 15.30465332 22.30549805 15.609375 23.0859375 C15.87717773 23.7670459 16.14498047 24.4481543 16.42089844 25.14990234 C17 27 17 27 17 30 C15.35 30 13.7 30 12 30 C10.5393715 27.35261084 10 26.10551666 10 23 C5.71 23 1.42 23 -3 23 C-3.66 25.31 -4.32 27.62 -5 30 C-6.65 30 -8.3 30 -10 30 C-8.63218625 22.98095574 -6.49261049 16.5832708 -3.875 9.9375 C-3.50246094 8.97650391 -3.12992188 8.01550781 -2.74609375 7.02539062 C-1.83644515 4.68129617 -0.92101046 2.33964819 0 0 Z " fill="#E24432" transform="translate(535,599)"/>
<path d="M0 0 C3.37441999 1.4125479 4.77695441 2.68030132 6.875 5.6875 C8.27435017 9.80780885 8.41921567 12.86982746 7 17 C4.80742191 19.64233769 3.06660382 21.46669809 0 23 C-4.65408901 23.4136968 -7.25239476 22.81070393 -11 20 C-13.96266844 15.55599734 -13.76945894 11.21098923 -13 6 C-9.15601255 0.94212178 -6.26193371 -0.49113206 0 0 Z " fill="#202327" transform="translate(687,603)"/>
<path d="M0 0 C1.65 0 3.3 0 5 0 C5 3.96 5 7.92 5 12 C9.62 12 14.24 12 19 12 C19 8.04 19 4.08 19 0 C20.65 0 22.3 0 24 0 C24 9.9 24 19.8 24 30 C22.35 30 20.7 30 19 30 C19 25.38 19 20.76 19 16 C14.38 16 9.76 16 5 16 C5 20.62 5 25.24 5 30 C3.35 30 1.7 30 0 30 C0 20.1 0 10.2 0 0 Z " fill="#EE4431" transform="translate(286,599)"/>
<path d="M0 0 C5.94 0 11.88 0 18 0 C18 1.65 18 3.3 18 5 C13.71 5 9.42 5 5 5 C5 7.64 5 10.28 5 13 C8.96 13 12.92 13 17 13 C17 14.65 17 16.3 17 18 C13.04 18 9.08 18 5 18 C5 20.64 5 23.28 5 26 C9.62 26 14.24 26 19 26 C19 27.65 19 29.3 19 31 C12.73 31 6.46 31 0 31 C0 20.77 0 10.54 0 0 Z " fill="#D34534" transform="translate(496,599)"/>
<path d="M0 0 C3.61288551 0.75935853 5.23519531 2.59561743 7.37890625 5.5 C7.70890625 6.16 8.03890625 6.82 8.37890625 7.5 C6.00390625 8.125 6.00390625 8.125 3.37890625 8.5 C2.71890625 7.84 2.05890625 7.18 1.37890625 6.5 C-1.3094876 6.23008094 -3.91251311 6.41262643 -6.62109375 6.5 C-6.57124456 8.42206313 -6.57124456 8.42206313 -5.62109375 10.5 C-2.95911933 12.16163713 -2.95911933 12.16163713 0.25390625 13.5 C7.19563957 16.57778055 7.19563957 16.57778055 9.37890625 20.5 C9.30160176 24.21061546 8.83592896 25.95452128 6.44140625 28.8125 C3.14723843 31.50772822 0.76152154 31.84357636 -3.515625 31.78125 C-7.01175036 31.31423511 -9.04597236 29.82389004 -11.62109375 27.5 C-12.49609375 24.75 -12.49609375 24.75 -12.62109375 22.5 C-11.30109375 22.17 -9.98109375 21.84 -8.62109375 21.5 C-8.31171875 22.16 -8.00234375 22.82 -7.68359375 23.5 C-5.16552361 25.94176498 -4.34002003 25.77142406 -0.93359375 25.75 C0.50488605 25.68576167 1.94307624 25.60836453 3.37890625 25.5 C3.25222166 23.04959624 3.25222166 23.04959624 2.37890625 20.5 C0.25388283 19.20525727 0.25388283 19.20525727 -2.37109375 18.5 C-6.84064094 16.89915931 -9.77900021 15.47893095 -12.62109375 11.5 C-13.45437986 7.50022668 -12.97806281 6.04735256 -10.74609375 2.625 C-6.93217275 0.03153372 -4.53153629 -0.21610903 0 0 Z " fill="#DB5141" transform="translate(574.62109375,598.5)"/>
<path d="M0 0 C1.98 0 3.96 0 6 0 C8.31 6.93 10.62 13.86 13 21 C15.9522037 14.05833185 18.723036 7.19041263 21 0 C22.98 0 24.96 0 27 0 C24.56775836 10.3080717 20.74664374 20.11605557 17 30 C14.69 30 12.38 30 10 30 C7.2687307 23.60561659 4.95702369 17.08963572 2.75 10.5 C2.47978027 9.69836426 2.20956055 8.89672852 1.93115234 8.07080078 C0 2.24753818 0 2.24753818 0 0 Z " fill="#E54834" transform="translate(783,599)"/>
<path d="M0 0 C5.94 0 11.88 0 18 0 C18 1.65 18 3.3 18 5 C13.71 5 9.42 5 5 5 C5 7.64 5 10.28 5 13 C8.96 13 12.92 13 17 13 C17 14.65 17 16.3 17 18 C13.04 18 9.08 18 5 18 C5 20.64 5 23.28 5 26 C9.29 26 13.58 26 18 26 C18 27.32 18 28.64 18 30 C12.06 30 6.12 30 0 30 C0 20.1 0 10.2 0 0 Z " fill="#E44734" transform="translate(324,599)"/>
<path d="M0 0 C5.61 0 11.22 0 17 0 C17 1.65 17 3.3 17 5 C13.04 5 9.08 5 5 5 C5 7.64 5 10.28 5 13 C8.63 13 12.26 13 16 13 C16 14.32 16 15.64 16 17 C12.37 17 8.74 17 5 17 C5 19.64 5 22.28 5 25 C9.62 25 14.24 25 19 25 C19 26.65 19 28.3 19 30 C12.73 30 6.46 30 0 30 C0 20.1 0 10.2 0 0 Z " fill="#F4523B" transform="translate(822,599)"/>
<path d="M0 0 C0.99 0.33 1.98 0.66 3 1 C2.34 1.66 1.68 2.32 1 3 C1.42410156 3.68626465 1.84820313 4.3725293 2.28515625 5.07958984 C4.19469931 8.17525292 6.09742431 11.27505042 8 14.375 C8.66773438 15.45523437 9.33546875 16.53546875 10.0234375 17.6484375 C10.97089844 19.1953125 10.97089844 19.1953125 11.9375 20.7734375 C12.52402344 21.72653809 13.11054687 22.67963867 13.71484375 23.66162109 C15 26 15 26 15 28 C10.28650633 29.17665316 5.53099117 30.12572208 1 28 C-3.88203591 22.91330351 -7.72293719 15.65882113 -10 9 C-9.67 8.34 -9.34 7.68 -9 7 C-8.01 7 -7.02 7 -6 7 C-3.89768759 6.99530794 -3.89768759 6.99530794 -2 6 C-0.6954344 3.00384054 -0.6954344 3.00384054 0 0 Z " fill="#E74533" transform="translate(517,446)"/>
<path d="M0 0 C5.61 0 11.22 0 17 0 C17 1.65 17 3.3 17 5 C13.04 5 9.08 5 5 5 C5 7.64 5 10.28 5 13 C8.63 13 12.26 13 16 13 C16 14.32 16 15.64 16 17 C12.37 17 8.74 17 5 17 C5 19.97 5 22.94 5 26 C9.29 26 13.58 26 18 26 C18 27.32 18 28.64 18 30 C12.06 30 6.12 30 0 30 C0 20.1 0 10.2 0 0 Z " fill="#F84D35" transform="translate(389,599)"/>
<path d="M0 0 C11.88 0 23.76 0 36 0 C36 3.96 36 7.92 36 12 C28.08 12 20.16 12 12 12 C12 16.29 12 20.58 12 25 C11.34 25 10.68 25 10 25 C9.94613371 22.87527424 9.90726929 20.75016348 9.875 18.625 C9.85179687 17.44164062 9.82859375 16.25828125 9.8046875 15.0390625 C10 12 10 12 12 10 C14.24658203 9.77294922 14.24658203 9.77294922 17.0078125 9.8046875 C17.99394531 9.81113281 18.98007812 9.81757813 19.99609375 9.82421875 C21.54490234 9.84935547 21.54490234 9.84935547 23.125 9.875 C24.16527344 9.88402344 25.20554687 9.89304687 26.27734375 9.90234375 C28.85179092 9.92596253 31.42578212 9.95889851 34 10 C34 7.36 34 4.72 34 2 C23.11 2 12.22 2 1 2 C1 21.8 1 41.6 1 62 C12.55 62 24.1 62 36 62 C36 59.03 36 56.06 36 53 C28.41 53 20.82 53 13 53 C13 52.67 13 52.34 13 52 C20.92 52 28.84 52 37 52 C37 55.63 37 59.26 37 63 C24.79 63 12.58 63 0 63 C0 42.21 0 21.42 0 0 Z " fill="#F54A34" transform="translate(700,493)"/>
<path d="M0 0 C2.578125 -0.061875 5.15625 -0.12375 7.8125 -0.1875 C9.02450073 -0.22846802 9.02450073 -0.22846802 10.26098633 -0.27026367 C15.46889209 -0.33102584 15.46889209 -0.33102584 17.98046875 1.234375 C19.24574542 3.42558211 19.465902 4.90998603 19.5 7.4375 C19.5309375 8.19933594 19.561875 8.96117187 19.59375 9.74609375 C18.6816655 13.20841452 17.03628443 14.20417356 14 16 C9.27267379 16.52005789 4.77279398 16.1784222 0 16 C0 10.72 0 5.44 0 0 Z " fill="#1E2226" transform="translate(497,422)"/>
<path d="M0 0 C13.2731377 -0.36869827 13.2731377 -0.36869827 16.42578125 1.23046875 C18.40131739 3.45110863 18.51102945 4.55882196 18.4375 7.5 C18.43621094 8.2734375 18.43492187 9.046875 18.43359375 9.84375 C17.90106684 12.49199194 17.11870227 13.36486037 15 15 C10.09931037 16.63356321 5.14261524 16.05529694 0 16 C0 10.72 0 5.44 0 0 Z " fill="#1B2126" transform="translate(447,505)"/>
<path d="M0 0 C9 0 9 0 12.0625 1.875 C14.78125657 6.26009125 14.91757377 9.96574393 14 15 C12.20353146 17.93423195 11.0558929 19.47205355 8 21 C5.36 21 2.72 21 0 21 C0 14.07 0 7.14 0 0 Z " fill="#23272B" transform="translate(464,604)"/>
<path d="M0 0 C7.59 0 15.18 0 23 0 C23.33 0.66 23.66 1.32 24 2 C16.74 2 9.48 2 2 2 C2 4.97 2 7.94 2 11 C2.62567871 10.98952637 3.25135742 10.97905273 3.89599609 10.96826172 C6.7222901 10.92676809 9.54852011 10.90069527 12.375 10.875 C13.35984375 10.85824219 14.3446875 10.84148438 15.359375 10.82421875 C16.77089844 10.81455078 16.77089844 10.81455078 18.2109375 10.8046875 C19.51490479 10.78897705 19.51490479 10.78897705 20.84521484 10.77294922 C23 11 23 11 25 13 C25.1953125 16.0390625 25.1953125 16.0390625 25.125 19.625 C25.10695313 20.81351563 25.08890625 22.00203125 25.0703125 23.2265625 C25.04710937 24.14179687 25.02390625 25.05703125 25 26 C22.54724859 27.2263757 20.9494219 27.11415314 18.2109375 27.09765625 C17.26992188 27.09443359 16.32890625 27.09121094 15.359375 27.08789062 C13.88210938 27.07532227 13.88210938 27.07532227 12.375 27.0625 C11.38242187 27.05798828 10.38984375 27.05347656 9.3671875 27.04882812 C6.91143278 27.03702161 4.45570894 27.01908582 2 27 C2 30.63 2 34.26 2 38 C9.59 38 17.18 38 25 38 C25 38.33 25 38.66 25 39 C16.75 39 8.5 39 0 39 C0 34.38 0 29.76 0 25 C7.59 25 15.18 25 23 25 C23 21.04 23 17.08 23 13 C15.41 13 7.82 13 0 13 C0 8.71 0 4.42 0 0 Z " fill="#161D22" transform="translate(712,505)"/>
<path d="M0 0 C3.83625 -0.12375 3.83625 -0.12375 7.75 -0.25 C8.54889648 -0.28641602 9.34779297 -0.32283203 10.17089844 -0.36035156 C13.63926522 -0.41451749 15.63130351 -0.26360347 18.48046875 1.7734375 C20.32664059 4.47862503 20.61287941 6.70532143 20.47265625 9.9609375 C19.64541221 13.52970929 17.55432354 15.44567646 15 18 C15.433125 18.71027344 15.86625 19.42054688 16.3125 20.15234375 C16.869375 21.07144531 17.42625 21.99054687 18 22.9375 C18.556875 23.85402344 19.11375 24.77054688 19.6875 25.71484375 C21 28 21 28 21 29 C18.375 29.625 18.375 29.625 15 29 C13.20328412 26.5691491 11.85249587 24.08037317 10.4921875 21.3828125 C8.87825941 18.80559749 7.80442091 18.04714429 5 17 C6.66611905 16.957279 8.33382885 16.95936168 10 17 C10.33 17.33 10.66 17.66 11 18 C11.4125 17.5875 11.825 17.175 12.25 16.75 C14 15 14 15 16.25 13.25 C18.37916728 10.99803132 18.37916728 10.99803132 17.9375 7.375 C17.3249155 3.74483076 17.3249155 3.74483076 14 2 C14.495 2.556875 14.99 3.11375 15.5 3.6875 C17.31567651 6.48666796 17.65420677 7.72896614 17 11 C14.43025001 13.71659284 12.94655411 14.91586186 9.1875 15.25 C8.465625 15.1675 7.74375 15.085 7 15 C6.67 14.34 6.34 13.68 6 13 C7.7015625 12.7834375 7.7015625 12.7834375 9.4375 12.5625 C12.80777201 12.38828522 12.80777201 12.38828522 14 11 C14.16666667 8.5 14.16666667 8.5 14 6 C11.83909114 3.83909114 6.7994153 4.27599869 4 4 C4 6.97 4 9.94 4 13 C3.67 13 3.34 13 3 13 C2.97311849 11.35425434 2.95365877 9.70838587 2.9375 8.0625 C2.92589844 7.14597656 2.91429687 6.22945312 2.90234375 5.28515625 C3 3 3 3 4 2 C3.01 1.67 2.02 1.34 1 1 C1 9.91 1 18.82 1 28 C1.66 28 2.32 28 3 28 C3 24.7 3 21.4 3 18 C3.33 18 3.66 18 4 18 C4 21.63 4 25.26 4 29 C2.68 29 1.36 29 0 29 C0 19.43 0 9.86 0 0 Z " fill="#F34D39" transform="translate(355,600)"/>
<path d="M0 0 C1.65 0 3.3 0 5 0 C5 8.91 5 17.82 5 27 C9.62 27 14.24 27 19 27 C19 28.32 19 29.64 19 31 C12.73 31 6.46 31 0 31 C0 20.77 0 10.54 0 0 Z " fill="#EA4631" transform="translate(735,599)"/>
<path d="M0 0 C12.21 0 24.42 0 37 0 C37 0.66 37 1.32 37 2 C25.45 2 13.9 2 2 2 C2 21.47 2 40.94 2 61 C1.34 61 0.68 61 0 61 C0 40.87 0 20.74 0 0 Z " fill="#F6442E" transform="translate(434,410)"/>
<path d="M0 0 C3.96 0 7.92 0 12 0 C12 8.25 12 16.5 12 25 C11.34 25 10.68 25 10 25 C10 17.41 10 9.82 10 2 C7.03 2 4.06 2 1 2 C1 21.8 1 41.6 1 62 C4.3 62 7.6 62 11 62 C11 53.75 11 45.5 11 37 C11.33 37 11.66 37 12 37 C12 45.58 12 54.16 12 63 C8.04 63 4.08 63 0 63 C0 42.21 0 21.42 0 0 Z " fill="#FD4B34" transform="translate(808,493)"/>
<path d="M0 0 C9.71428571 -0.57142857 9.71428571 -0.57142857 14 3 C18.48365287 7.77661883 20.44125269 11.01070783 20.3359375 17.55078125 C19.74938205 21.82717974 17.92406612 24.87110799 15 28 C11.35586696 30.7064168 7.96204391 31.8453858 3.5 32.5625 C-1.89005439 31.69624126 -6.04306424 29.57087639 -9.39453125 25.16796875 C-12.07432538 20.36706548 -12.62383323 16.43626097 -12 11 C-10.5 8 -10.5 8 -9 6 C-8.67 6.66 -8.34 7.32 -8 8 C-8.33 8.99 -8.66 9.98 -9 11 C-9.52707085 16.02013384 -9.52810047 19.90468051 -7.3125 24.5 C-3.70067794 28.4046725 -0.73459794 29.09730347 4.4375 29.375 C8.95592932 29.26956998 11.5560216 28.02398103 15 25 C17.91119877 20.39810503 17.68676396 15.26252848 17 10 C15.22876774 7.29898394 15.22876774 7.29898394 13 6 C13.495 6.804375 13.99 7.60875 14.5 8.4375 C16.26242385 12.62325664 16.91789442 16.50051753 16 21 C15.01 21.66 14.02 22.32 13 23 C13.10699219 22.34773437 13.21398437 21.69546875 13.32421875 21.0234375 C14.09374011 15.41337857 14.33021177 11.87638152 11 7 C9.43897509 5.18445841 9.43897509 5.18445841 8 4 C8.66 4 9.32 4 10 4 C10.33 3.34 10.66 2.68 11 2 C5.555 1.505 5.555 1.505 0 1 C0 0.67 0 0.34 0 0 Z " fill="#CF493B" transform="translate(680,599)"/>
<path d="M0 0 C7.18404854 0.26123813 11.32206314 2.70211724 17 7 C16.67641073 10.55948201 16.3899006 12.53463476 14.0625 15.3125 C10.76833218 18.00772822 8.38261529 18.34357636 4.10546875 18.28125 C0.60934339 17.81423511 -1.42487861 16.32389004 -4 14 C-4.875 11.25 -4.875 11.25 -5 9 C-3.68 8.67 -2.36 8.34 -1 8 C-0.690625 8.66 -0.38125 9.32 -0.0625 10 C2.45557014 12.44176498 3.28107372 12.27142406 6.6875 12.25 C8.1259798 12.18576167 9.56416999 12.10836453 11 12 C11 10.02 11 8.04 11 6 C10.28972656 5.73445312 9.57945312 5.46890625 8.84765625 5.1953125 C7.46900391 4.66550781 7.46900391 4.66550781 6.0625 4.125 C5.14597656 3.77695312 4.22945312 3.42890625 3.28515625 3.0703125 C1 2 1 2 0 0 Z " fill="#E64A37" transform="translate(567,612)"/>
<path d="M0 0 C1.65 0 3.3 0 5 0 C5 10.23 5 20.46 5 31 C3.35 31 1.7 31 0 31 C0 20.77 0 10.54 0 0 Z " fill="#F64A34" transform="translate(439,599)"/>
<path d="M0 0 C14.52 0 29.04 0 44 0 C44 3.96 44 7.92 44 12 C38.72 12 33.44 12 28 12 C28 28.83 28 45.66 28 63 C27.67 63 27.34 63 27 63 C27 45.51 27 28.02 27 10 C31.95 10 36.9 10 42 10 C42 7.36 42 4.72 42 2 C28.14 1.67 14.28 1.34 0 1 C0 0.67 0 0.34 0 0 Z " fill="#CD4233" transform="translate(649,493)"/>
<path d="M0 0 C1.98 0 3.96 0 6 0 C8.79763934 6.04290098 11.31066213 12.18069857 13.75 18.375 C14.06783447 19.17212402 14.38566895 19.96924805 14.71313477 20.79052734 C15.00889404 21.5480127 15.30465332 22.30549805 15.609375 23.0859375 C15.87717773 23.7670459 16.14498047 24.4481543 16.42089844 25.14990234 C17 27 17 27 17 30 C15.35 30 13.7 30 12 30 C10.5393715 27.35261084 10 26.10551666 10 23 C5.71 23 1.42 23 -3 23 C-3 22.67 -3 22.34 -3 22 C1.29 22 5.58 22 10 22 C10 21.34 10 20.68 10 20 C6.37 20 2.74 20 -1 20 C-1 19.67 -1 19.34 -1 19 C1.97 19 4.94 19 8 19 C7.67 17.35 7.34 15.7 7 14 C7.33 14.66 7.66 15.32 8 16 C8.66 16 9.32 16 10 16 C9.71125 15.15695312 9.4225 14.31390625 9.125 13.4453125 C8.75375 12.34960938 8.3825 11.25390625 8 10.125 C7.62875 9.03445313 7.2575 7.94390625 6.875 6.8203125 C6 4 6 4 6 2 C4.35 2 2.7 2 1 2 C0.01 5.3 -0.98 8.6 -2 12 C-3.01527342 7.93890631 -3.05430484 7.33033162 -1.5625 3.75 C-1.27503906 3.04359375 -0.98757813 2.3371875 -0.69140625 1.609375 C-0.46324219 1.07828125 -0.23507812 0.5471875 0 0 Z " fill="#E74836" transform="translate(535,599)"/>
<path d="M0 0 C5.01089899 2.70764367 8.74227053 5.95850862 11.2265625 11.203125 C11.2265625 12.193125 11.2265625 13.183125 11.2265625 14.203125 C9.97992919 14.71146091 8.72906863 15.20943645 7.4765625 15.703125 C6.78046875 15.9815625 6.084375 16.26 5.3671875 16.546875 C3.2265625 17.203125 3.2265625 17.203125 -0.7734375 17.203125 C-2.5234375 14.703125 -2.5234375 14.703125 -3.7734375 12.203125 C-2.1234375 11.873125 -0.4734375 11.543125 1.2265625 11.203125 C0.8965625 12.853125 0.5665625 14.503125 0.2265625 16.203125 C3.1965625 14.883125 6.1665625 13.563125 9.2265625 12.203125 C5.73337656 6.52669785 2.76986765 3.02124991 -3.7734375 1.203125 C-12.36129065 -0.26573131 -20.07644196 -0.94557434 -27.84375 3.72265625 C-30.29305095 5.6017758 -32.13066925 7.58963005 -33.7734375 10.203125 C-34.4334375 9.873125 -35.0934375 9.543125 -35.7734375 9.203125 C-27.52618957 -3.1677469 -13.05957809 -5.88717488 0 0 Z " fill="#E64532" transform="translate(786.7734375,494.796875)"/>
<path d="M0 0 C13.75 -0.125 13.75 -0.125 16 1 C15.67 1.99 15.34 2.98 15 4 C14.34 3.67 13.68 3.34 13 3 C11.12943209 2.7724985 9.25314042 2.59037189 7.375 2.4375 C6.37210937 2.35371094 5.36921875 2.26992188 4.3359375 2.18359375 C3.56507813 2.12300781 2.79421875 2.06242188 2 2 C2.13818532 5.47951523 2.28682601 8.95850495 2.4375 12.4375 C2.47681641 13.43072266 2.51613281 14.42394531 2.55664062 15.44726562 C2.59853516 16.39150391 2.64042969 17.33574219 2.68359375 18.30859375 C2.72025146 19.18314209 2.75690918 20.05769043 2.79467773 20.95874023 C2.78181066 22.9927402 2.78181066 22.9927402 4 24 C9.16047827 24.62144867 9.16047827 24.62144867 13.86328125 22.8828125 C15.30788861 21.66230891 16.66274172 20.33725828 18 19 C18.33 19.99 18.66 20.98 19 22 C16.63707344 24.52588702 15.33537489 25.88820837 12 27 C8.04 27 4.08 27 0 27 C0 18.09 0 9.18 0 0 Z " fill="#E13D2A" transform="translate(461,601)"/>
<path d="M0 0 C1.98 0 3.96 0 6 0 C3.56775836 10.3080717 -0.25335626 20.11605557 -4 30 C-6.31 30 -8.62 30 -11 30 C-10.67 29.34 -10.34 28.68 -10 28 C-8.35 28.33 -6.7 28.66 -5 29 C-3.515 23.555 -3.515 23.555 -2 18 C-2.66 17.67 -3.32 17.34 -4 17 C-4.33 17.66 -4.66 18.32 -5 19 C-4.39297368 12.3227105 -2.22368606 6.29872004 0 0 Z " fill="#E34533" transform="translate(804,599)"/>
<path d="M0 0 C1.65 0 3.3 0 5 0 C5.67260351 1.76858691 6.33788395 3.53996016 7 5.3125 C7.37125 6.29863281 7.7425 7.28476562 8.125 8.30078125 C9 11 9 11 9 14 C8.01 14.495 8.01 14.495 7 15 C7 15.33 7 15.66 7 16 C4.03 16 1.06 16 -2 16 C-1.34 12.7 -0.68 9.4 0 6 C-0.66 7.65 -1.32 9.3 -2 11 C-3.13643966 7.59068103 -2.86747764 6.99664544 -1.5625 3.8125 C-1.13130859 2.73935547 -1.13130859 2.73935547 -0.69140625 1.64453125 C-0.46324219 1.10183594 -0.23507812 0.55914063 0 0 Z " fill="#E13F2D" transform="translate(536,601)"/>
<path d="M0 0 C1.32 0 2.64 0 4 0 C4 9.9 4 19.8 4 30 C2.68 30 1.36 30 0 30 C0 20.1 0 10.2 0 0 Z " fill="#EF4630" transform="translate(766,599)"/>
<path d="M0 0 C2.64 0 5.28 0 8 0 C9.7004792 2.95105384 11.38311093 5.91190122 13.0625 8.875 C13.54783203 9.71675781 14.03316406 10.55851563 14.53320312 11.42578125 C14.98759766 12.23144531 15.44199219 13.03710938 15.91015625 13.8671875 C16.54642944 14.98262939 16.54642944 14.98262939 17.19555664 16.12060547 C17.46102295 16.74080566 17.72648926 17.36100586 18 18 C17.67 18.66 17.34 19.32 17 20 C15.66121428 17.8782637 14.32884524 15.75294812 13 13.625 C12.6184375 13.02171875 12.236875 12.4184375 11.84375 11.796875 C9 7.2265625 9 7.2265625 9 5 C7.02 4.34 5.04 3.68 3 3 C3 9.6 3 16.2 3 23 C2.01 23 1.02 23 0 23 C0 15.41 0 7.82 0 0 Z " fill="#161C20" transform="translate(447,533)"/>
<path d="M0 0 C0.928125 0.0825 1.85625 0.165 2.8125 0.25 C2.8125 0.91 2.8125 1.57 2.8125 2.25 C0.8325 2.25 -1.1475 2.25 -3.1875 2.25 C-3.30867187 2.91644531 -3.42984375 3.58289063 -3.5546875 4.26953125 C-4.765625 10.9296875 -5.9765625 17.58984375 -7.1875 24.25 C-7.8475 24.25 -8.5075 24.25 -9.1875 24.25 C-9.86113372 21.52238489 -10.52659444 18.793201 -11.1875 16.0625 C-11.37828125 15.29357422 -11.5690625 14.52464844 -11.765625 13.73242188 C-12.70373421 9.82921747 -13.44707208 6.29770205 -13.1875 2.25 C-11.1875 5.25 -11.1875 5.25 -11.1875 7.25 C-7.458186 5.23898112 -7.458186 5.23898112 -4.75 2.0625 C-3.1875 0.25 -3.1875 0.25 0 0 Z " fill="#242225" transform="translate(256.1875,596.75)"/>
<path d="M0 0 C4.62 0 9.24 0 14 0 C14 0.66 14 1.32 14 2 C10.04 2 6.08 2 2 2 C2.33 5.3 2.66 8.6 3 12 C6.63 12.33 10.26 12.66 14 13 C14 13.33 14 13.66 14 14 C10.37 14 6.74 14 3 14 C3 17.63 3 21.26 3 25 C6.96 25.33 10.92 25.66 15 26 C15 26.33 15 26.66 15 27 C10.05 27 5.1 27 0 27 C0 18.09 0 9.18 0 0 Z " fill="#D63826" transform="translate(498,601)"/>
<path d="M0 0 C6.0546875 -0.1953125 6.0546875 -0.1953125 8 0 C8.66 0.66 9.32 1.32 10 2 C11.31747324 2.69748583 12.64914193 3.36959957 14 4 C13.34 4.66 12.68 5.32 12 6 C13.03587181 8.23110851 14.00552411 10.00637397 15.625 11.875 C17.47069225 14.72743347 17.36217235 16.66801439 17 20 C16.34 20.66 15.68 21.32 15 22 C15.103125 20.948125 15.20625 19.89625 15.3125 18.8125 C15.32772937 14.96682766 15.32772937 14.96682766 13.0625 12.3125 C9.82209322 9.86566222 6.74438595 8.37803479 2.98828125 6.89453125 C1 6 1 6 -1 4 C-0.625 1.875 -0.625 1.875 0 0 Z " fill="#181B1F" transform="translate(568,604)"/>
<path d="M0 0 C0.33 0 0.66 0 1 0 C1 8.91 1 17.82 1 27 C12.24753804 26.95185252 12.24753804 26.95185252 18 23 C18 22.34 18 21.68 18 21 C17.34 21.66 16.68 22.32 16 23 C11.98141147 25.67905902 9.74694284 25.32182663 5 25 C5 24.67 5 24.34 5 24 C5.60328125 23.92523437 6.2065625 23.85046875 6.828125 23.7734375 C11.27719511 23.04149371 13.41787354 22.65489227 16.5 19.1875 C17.82840347 16.36464262 18.6373369 14.08263633 19 11 C19.33 11 19.66 11 20 11 C21.00685883 14.66188783 21.81262733 18.19901165 22 22 C19.80838231 25.3559146 17.95248294 26.51214288 14.4375 28.3125 C9.38659394 29.32268121 4.15093371 29 -1 29 C-0.67 19.43 -0.34 9.86 0 0 Z " fill="#E74C39" transform="translate(460,601)"/>
<path d="M0 0 C2 3 2 3 2 8 C5.3 8.66 8.6 9.32 12 10 C11.34 11.32 10.68 12.64 10 14 C2.04532578 14.61189802 2.04532578 14.61189802 -1.5625 12.5 C-3.71903764 8.74949976 -3.48506208 6.29626414 -3 2 C-2.01 1.34 -1.02 0.68 0 0 Z " fill="#23272B" transform="translate(636,609)"/>
<path d="M0 0 C0 1.65 0 3.3 0 5 C-4.29 5 -8.58 5 -13 5 C-13 7.64 -13 10.28 -13 13 C-9.04 13 -5.08 13 -1 13 C-1 14.65 -1 16.3 -1 18 C-4.96 18 -8.92 18 -13 18 C-14.21451659 13.14193366 -14.0658303 9.00310299 -14 4 C-10.04 4 -6.08 4 -2 4 C-2 3.34 -2 2.68 -2 2 C-6.95 2 -11.9 2 -17 2 C-17 1.67 -17 1.34 -17 1 C-14.54171921 0.83252588 -12.08338135 0.6659856 -9.625 0.5 C-8.92632812 0.45230469 -8.22765625 0.40460937 -7.5078125 0.35546875 C-2.2265625 0 -2.2265625 0 0 0 Z " fill="#E7523F" transform="translate(514,599)"/>
<path d="M0 0 C2.97 0 5.94 0 9 0 C9.33 0.66 9.66 1.32 10 2 C7.36 1.67 4.72 1.34 2 1 C2 6.94 2 12.88 2 19 C8.539039 18.71251622 8.539039 18.71251622 10.95703125 16.296875 C12.29924674 13.3409847 12.10674993 11.45154491 11.6875 8.25 C11.56761719 7.26515625 11.44773437 6.2803125 11.32421875 5.265625 C11.21722656 4.51796875 11.11023438 3.7703125 11 3 C11.99 3.66 12.98 4.32 14 5 C14.94400266 9.8050586 14.68180071 13.88639217 12.125 18.0625 C7.73857279 22.06188952 7.20536969 21 0 21 C0 14.07 0 7.14 0 0 Z " fill="#221D21" transform="translate(464,604)"/>
<path d="M0 0 C2.65802025 1.08011424 4.62427232 2.34731987 7 4 C7 4.66 7 5.32 7 6 C7.66 6 8.32 6 9 6 C9 6.66 9 7.32 9 8 C6.8125 8.75 6.8125 8.75 4 9 C3.2575 8.360625 2.515 7.72125 1.75 7.0625 C-2.10865517 4.16850862 -5.33633641 4.63422246 -10 5 C-10 4.34 -10 3.68 -10 3 C-10.99 2.67 -11.98 2.34 -13 2 C-8.74494293 -0.83670471 -4.99776266 -0.64925618 0 0 Z " fill="#E84938" transform="translate(646,599)"/>
<path d="M0 0 C3.31529273 0.98562757 4.74949379 1.65447419 6.8125 4.5 C8 7 8 7 8 9 C8.66 9.66 9.32 10.32 10 11 C6.04 11 2.08 11 -2 11 C-2.66 9.02 -3.32 7.04 -4 5 C-3.34 5 -2.68 5 -2 5 C-1.34 3.35 -0.68 1.7 0 0 Z " fill="#E23927" transform="translate(520,461)"/>
<path d="M0 0 C7.59 0 15.18 0 23 0 C23 3.96 23 7.92 23 12 C15.74 12 8.48 12 1 12 C1 11.34 1 10.68 1 10 C7.6 10 14.2 10 21 10 C21 7.03 21 4.06 21 1 C14.07 1 7.14 1 0 1 C0 0.67 0 0.34 0 0 Z " fill="#F24C37" transform="translate(712,518)"/>
<path d="M0 0 C0.66 0.33 1.32 0.66 2 1 C0.35 2.98 -1.3 4.96 -3 7 C-2.566875 7.71027344 -2.13375 8.42054688 -1.6875 9.15234375 C-1.130625 10.07144531 -0.57375 10.99054687 0 11.9375 C0.8353125 13.31228516 0.8353125 13.31228516 1.6875 14.71484375 C3 17 3 17 3 18 C0.375 18.625 0.375 18.625 -3 18 C-4.79671588 15.5691491 -6.14750413 13.08037317 -7.5078125 10.3828125 C-9.12174059 7.80559749 -10.19557909 7.04714429 -13 6 C-11.33388095 5.957279 -9.66617115 5.95936168 -8 6 C-7.67 6.33 -7.34 6.66 -7 7 C-6.5875 6.5875 -6.175 6.175 -5.75 5.75 C-3.83333333 3.83333333 -1.91666667 1.91666667 0 0 Z " fill="#EA4B3A" transform="translate(373,611)"/>
<path d="M0 0 C6.0546875 -0.1953125 6.0546875 -0.1953125 8 0 C10 2 10 2 10.25 4.5 C10 7 10 7 8 9 C5.31160615 9.26991906 2.70858064 9.08737357 0 9 C0 6.03 0 3.06 0 0 Z " fill="#0F161B" transform="translate(360,604)"/>
<path d="M0 0 C0.66 0 1.32 0 2 0 C2 9.24 2 18.48 2 28 C1.01 28 0.02 28 -1 28 C-1.02886338 23.52084672 -1.04675187 19.04171709 -1.0625 14.5625 C-1.07087891 13.28310547 -1.07925781 12.00371094 -1.08789062 10.68554688 C-1.09111328 9.47060547 -1.09433594 8.25566406 -1.09765625 7.00390625 C-1.10289307 5.87799072 -1.10812988 4.7520752 -1.11352539 3.59204102 C-1 1 -1 1 0 0 Z " fill="#E7402E" transform="translate(308,600)"/>
<path d="M0 0 C0.66 0 1.32 0 2 0 C2 8.25 2 16.5 2 25 C6.62 25 11.24 25 16 25 C16 25.66 16 26.32 16 27 C10.72 27 5.44 27 0 27 C0 18.09 0 9.18 0 0 Z " fill="#E13A29" transform="translate(325,601)"/>
<path d="M0 0 C1.65 0 3.3 0 5 0 C3.68 3.96 2.36 7.92 1 12 C-1.31 12 -3.62 12 -6 12 C-7.125 4.375 -7.125 4.375 -6 1 C-5.01 1.99 -4.02 2.98 -3 4 C-2.34 3.67 -1.68 3.34 -1 3 C-0.67 2.01 -0.34 1.02 0 0 Z " fill="#D73D2B" transform="translate(798,616)"/>
<path d="M0 0 C7.18404854 0.26123813 11.32206314 2.70211724 17 7 C16.39583333 12.4375 16.39583333 12.4375 14.8125 14.6875 C12.26272262 16.53389052 10.42141866 16.29722654 7.3125 16.1875 C5.82169922 16.14689453 5.82169922 16.14689453 4.30078125 16.10546875 C3.54152344 16.07066406 2.78226563 16.03585937 2 16 C2 15.67 2 15.34 2 15 C5.3 14.67 8.6 14.34 12 14 C11.67 11.36 11.34 8.72 11 6 C10.28972656 5.73445312 9.57945312 5.46890625 8.84765625 5.1953125 C7.46900391 4.66550781 7.46900391 4.66550781 6.0625 4.125 C5.14597656 3.77695312 4.22945312 3.42890625 3.28515625 3.0703125 C1 2 1 2 0 0 Z " fill="#D93623" transform="translate(567,612)"/>
<path d="M0 0 C8.25 0 16.5 0 25 0 C25 4.29 25 8.58 25 13 C19.39 13 13.78 13 8 13 C8 12.34 8 11.68 8 11 C12.95 11 17.9 11 23 11 C23 7.7 23 4.4 23 1 C15.41 1 7.82 1 0 1 C0 0.67 0 0.34 0 0 Z " fill="#D45847" transform="translate(691,410)"/>
<path d="M0 0 C1.32 0 2.64 0 4 0 C4 2.64 4 5.28 4 8 C8.62 8 13.24 8 18 8 C17.34 9.32 16.68 10.64 16 12 C10.72 12 5.44 12 0 12 C0 8.04 0 4.08 0 0 Z " fill="#C63827" transform="translate(823,616)"/>
<path d="M0 0 C0.99 0 1.98 0 3 0 C3 8.91 3 17.82 3 27 C3.66 27 4.32 27 5 27 C5 27.66 5 28.32 5 29 C3.35 29 1.7 29 0 29 C0 19.43 0 9.86 0 0 Z " fill="#DC3E2C" transform="translate(439,601)"/>
<path d="M0 0 C0.66 0 1.32 0 2 0 C1.98839844 0.68707031 1.97679687 1.37414062 1.96484375 2.08203125 C1.95582031 2.98308594 1.94679688 3.88414062 1.9375 4.8125 C1.92589844 5.70582031 1.91429687 6.59914063 1.90234375 7.51953125 C1.88990033 10.13413791 1.88990033 10.13413791 3 13 C4.79093191 13.08086147 6.58289628 13.13912702 8.375 13.1875 C9.37273438 13.22230469 10.37046875 13.25710938 11.3984375 13.29296875 C12.68621094 13.14794922 12.68621094 13.14794922 14 13 C14.66 12.01 15.32 11.02 16 10 C13.69 10 11.38 10 9 10 C8.67 9.34 8.34 8.68 8 8 C11.63 8 15.26 8 19 8 C16.55585464 14.11036339 16.55585464 14.11036339 14 16 C10.93004277 16.68987803 8.08825317 16.55805277 5 16 C1.80295854 13.93524406 0.35932117 12.46764985 -0.5546875 8.734375 C-1.35220026 2.70440051 -1.35220026 2.70440051 0 0 Z " fill="#1E1C1F" transform="translate(632,609)"/>
<path d="M0 0 C9.71428571 -0.57142857 9.71428571 -0.57142857 14 3 C18.80615098 7.37893756 18.80615098 7.37893756 19.3125 11.61328125 C19.3125 14.09550175 19.21982384 16.528203 19 19 C18.67 19 18.34 19 18 19 C17.97421875 18.39671875 17.9484375 17.7934375 17.921875 17.171875 C17.59668017 11.89464661 17.59668017 11.89464661 14.9375 7.4375 C14.298125 6.963125 13.65875 6.48875 13 6 C13.495 6.804375 13.99 7.60875 14.5 8.4375 C16.26242385 12.62325664 16.91789442 16.50051753 16 21 C15.01 21.66 14.02 22.32 13 23 C13.10699219 22.34773437 13.21398437 21.69546875 13.32421875 21.0234375 C14.09374011 15.41337857 14.33021177 11.87638152 11 7 C9.43897509 5.18445841 9.43897509 5.18445841 8 4 C8.66 4 9.32 4 10 4 C10.33 3.34 10.66 2.68 11 2 C7.37 1.67 3.74 1.34 0 1 C0 0.67 0 0.34 0 0 Z " fill="#EC4E3A" transform="translate(680,599)"/>
<path d="M0 0 C3.96 0 7.92 0 12 0 C12 8.25 12 16.5 12 25 C11.34 25 10.68 25 10 25 C10 17.41 10 9.82 10 2 C7.03 2 4.06 2 1 2 C0.67 2.66 0.34 3.32 0 4 C0 2.68 0 1.36 0 0 Z " fill="#F4452F" transform="translate(808,493)"/>
<path d="M0 0 C2.375 -0.125 2.375 -0.125 5 0 C7 2 7 2 7.1953125 4.3828125 C7.13020833 6.921875 7.06510417 9.4609375 7 12 C10.3 12 13.6 12 17 12 C17 8.7 17 5.4 17 2 C17.33 2 17.66 2 18 2 C18.33 5.96 18.66 9.92 19 14 C14.38 14 9.76 14 5 14 C5 10.04 5 6.08 5 2 C3.35 1.67 1.7 1.34 0 1 C0 0.67 0 0.34 0 0 Z " fill="#1D1D21" transform="translate(286,597)"/>
<path d="M0 0 C2 1 2 1 2.8515625 3.36328125 C3.10679687 4.33652344 3.36203125 5.30976562 3.625 6.3125 C3.88539063 7.27800781 4.14578125 8.24351562 4.4140625 9.23828125 C5 12 5 12 5 16 C9.62 16 14.24 16 19 16 C19.33 13.69 19.66 11.38 20 9 C20.33 9 20.66 9 21 9 C21.09765625 15.15234375 21.09765625 15.15234375 21 17 C19.06845515 18.93154485 15.6889823 18.21854009 13.125 18.25 C11.24167969 18.28867187 11.24167969 18.28867187 9.3203125 18.328125 C6 18 6 18 4.16015625 16.82421875 C2.66334633 14.47064894 2.00508772 12.26322564 1.3125 9.5625 C1.06113281 8.61503906 0.80976562 7.66757812 0.55078125 6.69140625 C0 4 0 4 0 0 Z " fill="#141D22" transform="translate(593,540)"/>
<path d="M0 0 C0.66 0 1.32 0 2 0 C2.433125 1.6396875 2.433125 1.6396875 2.875 3.3125 C3.81893204 7.04013845 3.81893204 7.04013845 6 10 C6.66 10 7.32 10 8 10 C8.04898438 9.36191406 8.09796875 8.72382812 8.1484375 8.06640625 C8.22320312 7.24011719 8.29796875 6.41382813 8.375 5.5625 C8.44460937 4.73878906 8.51421875 3.91507813 8.5859375 3.06640625 C8.72257813 2.38449219 8.85921875 1.70257812 9 1 C9.66 0.67 10.32 0.34 11 0 C10.39891424 5.65020618 8.92471317 10.66164461 7 16 C5.0703125 15.6484375 5.0703125 15.6484375 3 15 C1.875 12.625 1.875 12.625 1 10 C0.34 9.01 -0.32 8.02 -1 7 C-0.625 3.3125 -0.625 3.3125 0 0 Z " fill="#E13B28" transform="translate(242,612)"/>
<path d="M0 0 C0 4.95 0 9.9 0 15 C-0.66 15 -1.32 15 -2 15 C-2 14.01 -2 13.02 -2 12 C-3.32 11.67 -4.64 11.34 -6 11 C-5.2884375 10.1028125 -5.2884375 10.1028125 -4.5625 9.1875 C-2.83534256 6.99617076 -2.83534256 6.99617076 -2 4 C-5.3 3.67 -8.6 3.34 -12 3 C-12 2.34 -12 1.68 -12 1 C-7.81823821 0.20347395 -4.34015506 0 0 0 Z " fill="#E23C2A" transform="translate(654,613)"/>
<path d="M0 0 C0.33 0 0.66 0 1 0 C1 2.64 1 5.28 1 8 C4.63 8 8.26 8 12 8 C12 9.32 12 10.64 12 12 C8.37 12 4.74 12 1 12 C1 14.97 1 17.94 1 21 C0.67 21 0.34 21 0 21 C0 14.07 0 7.14 0 0 Z " fill="#D74232" transform="translate(393,604)"/>
<path d="M0 0 C0.99 0.33 1.98 0.66 3 1 C2.67 1.66 2.34 2.32 2 3 C1.63058473 8.54122903 1.71242299 12.28780629 5 17 C8.5624487 19.24589157 11.84573781 20.38907909 16 21 C16 21.33 16 21.66 16 22 C10.75990358 22.31440578 7.40770776 21.93847184 3 19 C-1.09732115 14.57920613 -1.40641304 11.03025737 -1.23828125 5.26953125 C-1 3 -1 3 0 0 Z " fill="#DA3A27" transform="translate(671,607)"/>
<path d="M0 0 C0.66 0 1.32 0 2 0 C1.97679687 0.80824219 1.95359375 1.61648438 1.9296875 2.44921875 C1.91164063 3.51785156 1.89359375 4.58648438 1.875 5.6875 C1.84019531 7.27111328 1.84019531 7.27111328 1.8046875 8.88671875 C2.00434302 12.06922782 2.51442514 14.18945297 4 17 C8.64628688 19.32314344 12.92976897 19.17483555 18 19 C17.67 19.66 17.34 20.32 17 21 C7.06563859 21.78291815 7.06563859 21.78291815 2.9375 18.75 C0.0223538 14.61237314 -1.2715198 11.99256955 -1.1875 6.875 C-1.17783203 5.57175781 -1.17783203 5.57175781 -1.16796875 4.2421875 C-1 2 -1 2 0 0 Z " fill="#D93A27" transform="translate(629,607)"/>
<path d="M0 0 C4.95 0.33 9.9 0.66 15 1 C15 1.66 15 2.32 15 3 C11.37 3 7.74 3 4 3 C4 5.97 4 8.94 4 12 C2.68 12 1.36 12 0 12 C0 8.04 0 4.08 0 0 Z " fill="#D13828" transform="translate(823,600)"/>
<path d="M0 0 C0.99 0.495 0.99 0.495 2 1 C2.60613909 4.98565046 2.74564735 8.97274969 3 13 C7.29 13.33 11.58 13.66 16 14 C16 14.66 16 15.32 16 16 C10.72 16 5.44 16 0 16 C0 10.72 0 5.44 0 0 Z " fill="#DC3A28" transform="translate(390,612)"/>
<path d="M0 0 C0.33 0 0.66 0 1 0 C1.042721 1.66611905 1.04063832 3.33382885 1 5 C0 6 0 6 -2.50390625 6.09765625 C-4.01791016 6.08025391 -4.01791016 6.08025391 -5.5625 6.0625 C-6.57441406 6.05347656 -7.58632813 6.04445313 -8.62890625 6.03515625 C-9.41136719 6.02355469 -10.19382812 6.01195312 -11 6 C-11 7.65 -11 9.3 -11 11 C-7.04 11 -3.08 11 1 11 C1 11.66 1 12.32 1 13 C-3.62 13 -8.24 13 -13 13 C-13 10.36 -13 7.72 -13 5 C-9.04 5 -5.08 5 -1 5 C-0.67 3.35 -0.34 1.7 0 0 Z " fill="#14181E" transform="translate(514,612)"/>
<path d="M0 0 C4.62 0 9.24 0 14 0 C14.25 9.5 14.25 9.5 12 14 C12 10.04 12 6.08 12 2 C8.37 2 4.74 2 1 2 C1 5.96 1 9.92 1 14 C0.67 14 0.34 14 0 14 C0 9.38 0 4.76 0 0 Z " fill="#1C1E23" transform="translate(291,615)"/>
<path d="M0 0 C0.66 0 1.32 0 2 0 C3.32 3.96 4.64 7.92 6 12 C3.03 12 0.06 12 -3 12 C-2.01 8.04 -1.02 4.08 0 0 Z " fill="#15171C" transform="translate(537,605)"/>
<path d="M0 0 C1.98 0 3.96 0 6 0 C7.69832609 5.83799592 8.25287193 10.93107371 8 17 C5.65085508 14.65085508 5.26859643 13.04320554 4.375 9.875 C4.11460937 8.96492187 3.85421875 8.05484375 3.5859375 7.1171875 C3.39257812 6.41851563 3.19921875 5.71984375 3 5 C2.34 5 1.68 5 1 5 C0.67 3.35 0.34 1.7 0 0 Z " fill="#DD402F" transform="translate(783,599)"/>
<path d="M0 0 C6.5958373 1.64895933 11.95123542 5.2469726 16 10.6875 C17 13 17 13 17 16 C15.75336669 16.50833591 14.50250613 17.00631145 13.25 17.5 C12.55390625 17.7784375 11.8578125 18.056875 11.140625 18.34375 C9 19 9 19 5 19 C3.25 16.5 3.25 16.5 2 14 C3.65 13.67 5.3 13.34 7 13 C6.67 14.65 6.34 16.3 6 18 C8.97 16.68 11.94 15.36 15 14 C11.13732803 7.43345766 6.95684971 4.93133279 0 2 C0 1.34 0 0.68 0 0 Z " fill="#E65341" transform="translate(781,493)"/>
<path d="M0 0 C3.875 1.75 3.875 1.75 5 4 C5.52925888 9.30994155 5.61921454 13.69276931 3.3125 18.5625 C0.93474769 21.06877946 -0.69936902 22.08315806 -4 23 C-4 21 -4 21 -1.5625 18.4375 C-0.716875 17.633125 0.12875 16.82875 1 16 C2.5516502 14.4483498 2.1694916 12.96270239 2.1875 10.8125 C2.15596429 6.86422854 1.51112262 3.68336139 0 0 Z " fill="#DD3A26" transform="translate(693,605)"/>
<path d="M0 0 C0.66 0 1.32 0 2 0 C2.08636719 0.68707031 2.17273438 1.37414062 2.26171875 2.08203125 C2.98756539 7.8682702 2.98756539 7.8682702 6.625 12.125 C7.800625 12.558125 7.800625 12.558125 9 13 C9.33 12.01 9.66 11.02 10 10 C10 10.66 10 11.32 10 12 C12.97 12 15.94 12 19 12 C15.55341506 15.44658494 15.55341506 15.44658494 11.6875 15.5 C6.57989075 15.35002126 4.46760667 13.640987 1 10 C-0.60725635 6.78548731 -0.05748185 3.56387464 0 0 Z " fill="#191C1F" transform="translate(338,487)"/>
<path d="M0 0 C1.4540625 0.0309375 1.4540625 0.0309375 2.9375 0.0625 C2.9375 0.7225 2.9375 1.3825 2.9375 2.0625 C0.9575 2.0625 -1.0225 2.0625 -3.0625 2.0625 C-3.7225 5.0325 -4.3825 8.0025 -5.0625 11.0625 C-6.3825 9.4125 -7.7025 7.7625 -9.0625 6.0625 C-3.0625 0.0625 -3.0625 0.0625 0 0 Z M-13.0625 2.0625 C-11.0625 5.0625 -11.0625 5.0625 -11.0625 7.0625 C-10.4025 7.3925 -9.7425 7.7225 -9.0625 8.0625 C-9.0625 10.3725 -9.0625 12.6825 -9.0625 15.0625 C-11.0625 14.0625 -11.0625 14.0625 -12.1875 10.8125 C-12.91713482 7.68549365 -13.25484975 5.23627095 -13.0625 2.0625 Z " fill="#131D22" transform="translate(256.0625,596.9375)"/>
<path d="M0 0 C2.42999536 2.27364177 3.42805835 3.68273845 4 7 C4.66 6.67 5.32 6.34 6 6 C6.17835515 10.54805635 5.99785435 13.8794254 4 18 C1.29001045 15.29001045 0.04646609 13.74624536 -0.1953125 9.86328125 C-0.17210937 8.69152344 -0.14890625 7.51976562 -0.125 6.3125 C-0.09792969 4.54326172 -0.09792969 4.54326172 -0.0703125 2.73828125 C-0.04710937 1.83464844 -0.02390625 0.93101562 0 0 Z " fill="#D03F2E" transform="translate(478,604)"/>
<path d="M0 0 C0.66 0 1.32 0 2 0 C2 3.63 2 7.26 2 11 C1.34 11 0.68 11 0 11 C0 8.36 0 5.72 0 3 C-10.23 3 -20.46 3 -31 3 C-31 2.67 -31 2.34 -31 2 C-20.77 2 -10.54 2 0 2 C0 1.34 0 0.68 0 0 Z " fill="#D43C2D" transform="translate(471,410)"/>
<path d="M0 0 C2.64 0.33 5.28 0.66 8 1 C8.33 1.99 8.66 2.98 9 4 C12.6583108 5.58466433 16.83147995 5.11064817 20.75 5.0625 C21.44738281 5.05798828 22.14476562 5.05347656 22.86328125 5.04882812 C24.57555803 5.0371002 26.28779033 5.01916653 28 5 C23.18018474 8.21321017 17.97434851 8.47709926 12.296875 7.56640625 C6.84682814 6.12230701 3.55448757 4.383868 0 0 Z " fill="#E04C39" transform="translate(756,550)"/>
<path d="M0 0 C5.4939759 2.69879518 5.4939759 2.69879518 6.875 6.25 C6.91625 6.8275 6.9575 7.405 7 8 C6.319375 7.0409375 6.319375 7.0409375 5.625 6.0625 C1.73228344 3.00393699 -2.13841996 2.90062808 -7 3 C-10.47518686 3.79123713 -10.47518686 3.79123713 -13 5 C-12.625 3.0625 -12.625 3.0625 -12 1 C-8.28954037 -0.85522982 -4.04937616 -0.45268677 0 0 Z " fill="#161A1E" transform="translate(779,505)"/>
<path d="M0 0 C0.33 0 0.66 0 1 0 C1.96509044 6.39372417 2.08084859 12.53211242 2 19 C-2.29 19 -6.58 19 -11 19 C-11 18.34 -11 17.68 -11 17 C-7.37 17 -3.74 17 0 17 C0 11.39 0 5.78 0 0 Z " fill="#F35642" transform="translate(445,455)"/>
<path d="M0 0 C0.66 0 1.32 0 2 0 C3.33583899 4.84241633 4.25328119 8.93437617 4 14 C2 11 2 11 2 7 C1.34 7 0.68 7 0 7 C-0.144375 8.051875 -0.28875 9.10375 -0.4375 10.1875 C-0.87526966 13.15460549 -1.37804866 16.06794366 -2 19 C-2.66 19 -3.32 19 -4 19 C-3.37968409 12.42465139 -1.85102717 6.33307408 0 0 Z " fill="#1C1C20" transform="translate(255,610)"/>
<path d="M0 0 C0.99 0.66 1.98 1.32 3 2 C3.99 2 4.98 2 6 2 C7.32 4.64 8.64 7.28 10 10 C5.38 10 0.76 10 -4 10 C-4 9.34 -4 8.68 -4 8 C-0.37 8 3.26 8 7 8 C7 7.34 7 6.68 7 6 C4.69 5.34 2.38 4.68 0 4 C0 2.68 0 1.36 0 0 Z " fill="#EB4C37" transform="translate(471,546)"/>
<path d="M0 0 C0.33 0 0.66 0 1 0 C0.39700836 7.23589973 -1.1150587 13.99370876 -3 21 C-3.33 21 -3.66 21 -4 21 C-4.50690584 18.93918639 -5.00524619 16.87626474 -5.5 14.8125 C-5.7784375 13.66394531 -6.056875 12.51539063 -6.34375 11.33203125 C-6.91495385 8.43181171 -7.13283779 5.93903615 -7 3 C-4.53721199 5.46278801 -4.00228745 7.70676982 -3 11 C-2.01 7.37 -1.02 3.74 0 0 Z " fill="#13191D" transform="translate(608,513)"/>
<path d="M0 0 C5 1 5 1 6.6171875 2.99609375 C7.03226562 3.80175781 7.44734375 4.60742188 7.875 5.4375 C8.30554688 6.24058594 8.73609375 7.04367187 9.1796875 7.87109375 C9.45039063 8.57363281 9.72109375 9.27617188 10 10 C9.67 10.66 9.34 11.32 9 12 C8.566875 11.195625 8.13375 10.39125 7.6875 9.5625 C6.19525998 6.72153646 6.19525998 6.72153646 3 6 C2.34 7.98 1.68 9.96 1 12 C0.67 12 0.34 12 0 12 C0 8.04 0 4.08 0 0 Z " fill="#111A1F" transform="translate(360,618)"/>
<path d="M0 0 C2.61724095 2.36797991 4.32861729 4.89600354 6 8 C6 8.66 6 9.32 6 10 C1.38 10 -3.24 10 -8 10 C-8 9.34 -8 8.68 -8 8 C-6.35 7.67 -4.7 7.34 -3 7 C-3 6.67 -3 6.34 -3 6 C-1.35 6 0.3 6 2 6 C1.34 4.02 0.68 2.04 0 0 Z " fill="#EC705E" transform="translate(526,464)"/>
<path d="M0 0 C1.79260132 0.05995322 3.58425795 0.1487241 5.375 0.25 C6.87160156 0.31960938 6.87160156 0.31960938 8.3984375 0.390625 C9.68621094 0.69226563 9.68621094 0.69226563 11 1 C11.66 2.32 12.32 3.64 13 5 C8.38 5.33 3.76 5.66 -1 6 C-0.67 4.02 -0.34 2.04 0 0 Z " fill="#D03A28" transform="translate(532,616)"/>
<path d="M0 0 C4.29 0 8.58 0 13 0 C13 0.33 13 0.66 13 1 C9.37 1 5.74 1 2 1 C2 2.32 2 3.64 2 5 C5.3 5 8.6 5 12 5 C12 5.66 12 6.32 12 7 C8.04 7 4.08 7 0 7 C0 4.69 0 2.38 0 0 Z " fill="#09171E" transform="translate(329,605)"/>
<path d="M0 0 C1.98 0 3.96 0 6 0 C4.98408579 5.46864457 3.92908943 10.76390013 2 16 C0.82428549 12.32589215 0.92633254 8.83070817 1 5 C0.67 5 0.34 5 0 5 C0 3.35 0 1.7 0 0 Z " fill="#EA4735" transform="translate(269,599)"/>
<path d="M0 0 C0.66 0.66 1.32 1.32 2 2 C2.33 1.34 2.66 0.68 3 0 C3.66 0 4.32 0 5 0 C4.67 4.62 4.34 9.24 4 14 C5.65 14 7.3 14 9 14 C9 14.33 9 14.66 9 15 C7.02 15 5.04 15 3 15 C2.49363393 13.25183142 1.99515381 11.50137737 1.5 9.75 C1.2215625 8.77546875 0.943125 7.8009375 0.65625 6.796875 C0 4 0 4 0 0 Z " fill="#EC4A36" transform="translate(258,614)"/>
<path d="M0 0 C4.29 0 8.58 0 13 0 C12.50639991 4.27786748 11.95216435 7.09567131 10 11 C10.33 8.03 10.66 5.06 11 2 C7.7 2 4.4 2 1 2 C1 3.65 1 5.3 1 7 C0.67 7 0.34 7 0 7 C0 4.69 0 2.38 0 0 Z " fill="#EA4532" transform="translate(614,493)"/>
<path d="M0 0 C1.98 0 3.96 0 6 0 C6 1.65 6 3.3 6 5 C5.34 5 4.68 5 4 5 C4 6.32 4 7.64 4 9 C3.34 8.67 2.68 8.34 2 8 C2 7.34 2 6.68 2 6 C1.34 6 0.68 6 0 6 C-0.33 6.99 -0.66 7.98 -1 9 C-0.67 6.03 -0.34 3.06 0 0 Z " fill="#E94632" transform="translate(253,599)"/>
<path d="M0 0 C4.95 0 9.9 0 15 0 C15 0.66 15 1.32 15 2 C9.06 2.495 9.06 2.495 3 3 C2.34 4.65 1.68 6.3 1 8 C0.67 8 0.34 8 0 8 C0 5.36 0 2.72 0 0 Z " fill="#DF3B27" transform="translate(390,601)"/>
<path d="M0 0 C2.1519437 3.22791555 2.20086443 4.28400809 2 8 C1.01 8.495 1.01 8.495 0 9 C-0.79941308 11.52369457 -1.4936108 13.99718906 -2.125 16.5625 C-2.30675781 17.27341797 -2.48851562 17.98433594 -2.67578125 18.71679688 C-3.12444465 20.47602969 -3.56315957 22.23779417 -4 24 C-4.33 24 -4.66 24 -5 24 C-4.61375277 15.61843511 -2.4744657 7.98734511 0 0 Z " fill="#181A1E" transform="translate(587,516)"/>
<path d="M0 0 C1.99954746 -0.04254356 4.00041636 -0.04080783 6 0 C7 1 7 1 7.0625 3.5625 C7.041875 4.366875 7.02125 5.17125 7 6 C4.69 6 2.38 6 0 6 C0 4.02 0 2.04 0 0 Z " fill="#21282A" transform="translate(361,605)"/>
<path d="M0 0 C1.32 0 2.64 0 4 0 C4 3.96 4 7.92 4 12 C3.67 12 3.34 12 3 12 C2.67 10.68 2.34 9.36 2 8 C2 8.66 2 9.32 2 10 C1.01 10.33 0.02 10.66 -1 11 C-1.22174933 9.54364629 -1.42698698 8.08477044 -1.625 6.625 C-1.74101563 5.81289063 -1.85703125 5.00078125 -1.9765625 4.1640625 C-1.98429688 3.44992187 -1.99203125 2.73578125 -2 2 C-1.34 1.34 -0.68 0.68 0 0 Z " fill="#172227" transform="translate(664,410)"/>
<path d="M0 0 C0.33 0 0.66 0 1 0 C1 2.64 1 5.28 1 8 C5.62 8 10.24 8 15 8 C15 8.99 15 9.98 15 11 C12.68715544 10.85973717 10.37472409 10.71264442 8.0625 10.5625 C6.13083984 10.44068359 6.13083984 10.44068359 4.16015625 10.31640625 C1 10 1 10 0 9 C-0.07179964 7.48071962 -0.08392007 5.95832518 -0.0625 4.4375 C-0.05347656 3.61121094 -0.04445313 2.78492188 -0.03515625 1.93359375 C-0.02355469 1.29550781 -0.01195312 0.65742187 0 0 Z " fill="#F24932" transform="translate(500,617)"/>
<path d="M0 0 C0 1.65 0 3.3 0 5 C-4.29 5 -8.58 5 -13 5 C-13 4.67 -13 4.34 -13 4 C-9.37 4 -5.74 4 -2 4 C-2 3.34 -2 2.68 -2 2 C-6.95 2 -11.9 2 -17 2 C-17 1.67 -17 1.34 -17 1 C-14.54171921 0.83252588 -12.08338135 0.6659856 -9.625 0.5 C-8.92632812 0.45230469 -8.22765625 0.40460937 -7.5078125 0.35546875 C-2.2265625 0 -2.2265625 0 0 0 Z " fill="#F1644E" transform="translate(514,599)"/>
<path d="M0 0 C0.66 0.33 1.32 0.66 2 1 C0.37660195 2.70884005 -1.29319053 4.37446717 -3 6 C-3.66 6 -4.32 6 -5 6 C-4.34 7.65 -3.68 9.3 -3 11 C-4.32 11.33 -5.64 11.66 -7 12 C-7.2475 11.38125 -7.495 10.7625 -7.75 10.125 C-9.20628639 7.64931313 -10.37812506 7.04874998 -13 6 C-11.33388095 5.957279 -9.66617115 5.95936168 -8 6 C-7.67 6.33 -7.34 6.66 -7 7 C-6.5875 6.5875 -6.175 6.175 -5.75 5.75 C-3.83333333 3.83333333 -1.91666667 1.91666667 0 0 Z " fill="#D85140" transform="translate(373,611)"/>
<path d="M0 0 C2.2421875 -0.3984375 2.2421875 -0.3984375 4.875 -0.375 C5.73867188 -0.38273438 6.60234375 -0.39046875 7.4921875 -0.3984375 C10.44422774 0.07057824 11.85058142 0.95055438 14 3 C14 3.66 14 4.32 14 5 C13.34 5 12.68 5 12 5 C12 4.34 12 3.68 12 3 C7.38 3 2.76 3 -2 3 C-1.34 2.01 -0.68 1.02 0 0 Z " fill="#E44938" transform="translate(567,599)"/>
<path d="M0 0 C4.38889325 0.66498383 7.9811485 2.18757677 12 4 C12 4.66 12 5.32 12 6 C9.8125 6.75 9.8125 6.75 7 7 C4.1875 5.1875 4.1875 5.1875 2 3 C2 2.34 2 1.68 2 1 C1.34 0.67 0.68 0.34 0 0 Z " fill="#DB7569" transform="translate(643,601)"/>
<path d="M0 0 C0.66 0 1.32 0 2 0 C2 0.99 2 1.98 2 3 C2.66 3 3.32 3 4 3 C4.33 4.98 4.66 6.96 5 9 C2.03 8.505 2.03 8.505 -1 8 C-1.04241723 5.66705225 -1.04092937 3.33297433 -1 1 C-0.67 0.67 -0.34 0.34 0 0 Z " fill="#D63C2B" transform="translate(263,620)"/>
<path d="M0 0 C0.66 0.33 1.32 0.66 2 1 C1.39583333 6.4375 1.39583333 6.4375 -0.1875 8.6875 C-2.73727738 10.53389052 -4.57858134 10.29722654 -7.6875 10.1875 C-8.68136719 10.16042969 -9.67523437 10.13335938 -10.69921875 10.10546875 C-11.45847656 10.07066406 -12.21773437 10.03585937 -13 10 C-13 9.67 -13 9.34 -13 9 C-12.30132813 8.86722656 -11.60265625 8.73445312 -10.8828125 8.59765625 C-9.51769531 8.33275391 -9.51769531 8.33275391 -8.125 8.0625 C-7.22007812 7.88847656 -6.31515625 7.71445312 -5.3828125 7.53515625 C-3.00043683 7.10036299 -3.00043683 7.10036299 -1 6 C-0.34227572 2.97065509 -0.34227572 2.97065509 0 0 Z " fill="#D04030" transform="translate(582,618)"/>
<path d="M0 0 C4.29 0.66 8.58 1.32 13 2 C12.67 2.99 12.34 3.98 12 5 C11.01 5 10.02 5 9 5 C9 4.34 9 3.68 9 3 C5.7 3 2.4 3 -1 3 C-0.67 2.01 -0.34 1.02 0 0 Z " fill="#DD3927" transform="translate(678,599)"/>
<path d="M0 0 C3.63 0 7.26 0 11 0 C9 5 9 5 6.875 6.3125 C6.25625 6.539375 5.6375 6.76625 5 7 C5.99 5.35 6.98 3.7 8 2 C5.69 2 3.38 2 1 2 C0.67 1.34 0.34 0.68 0 0 Z " fill="#0E181C" transform="translate(640,617)"/>
<path d="M0 0 C0.33 0 0.66 0 1 0 C1 6.93 1 13.86 1 21 C0.67 21 0.34 21 0 21 C-0.06058594 20.18015625 -0.12117188 19.3603125 -0.18359375 18.515625 C-0.26738281 17.43796875 -0.35117187 16.3603125 -0.4375 15.25 C-0.51871094 14.18265625 -0.59992188 13.1153125 -0.68359375 12.015625 C-0.90930426 9.10747138 -0.90930426 9.10747138 -1.59375 6.78125 C-2.19970137 4.1243863 -1.13173353 2.39661218 0 0 Z " fill="#F0472F" transform="translate(392,604)"/>
<path d="M0 0 C1.98 0 3.96 0 6 0 C5.01 3.3 4.02 6.6 3 10 C2.67 10 2.34 10 2 10 C2.33 7.69 2.66 5.38 3 3 C2.01 3.33 1.02 3.66 0 4 C0 2.68 0 1.36 0 0 Z " fill="#EA4B38" transform="translate(804,599)"/>
<path d="M0 0 C1.4540625 0.0309375 1.4540625 0.0309375 2.9375 0.0625 C3.2675 0.7225 3.5975 1.3825 3.9375 2.0625 C1.9575 2.0625 -0.0225 2.0625 -2.0625 2.0625 C-1.7325 4.7025 -1.4025 7.3425 -1.0625 10.0625 C-3.11869793 7.74927733 -4.02149829 6.50326838 -4.3125 3.375 C-3.93070838 -0.15657247 -3.65046868 0.07449936 0 0 Z " fill="#151D20" transform="translate(239.0625,596.9375)"/>
<path d="M0 0 C1.32 0 2.64 0 4 0 C3.67 1.32 3.34 2.64 3 4 C2.01 4 1.02 4 0 4 C-0.99 7.465 -0.99 7.465 -2 11 C-3.13643966 7.59068103 -2.86747764 6.99664544 -1.5625 3.8125 C-1.13130859 2.73935547 -1.13130859 2.73935547 -0.69140625 1.64453125 C-0.46324219 1.10183594 -0.23507812 0.55914063 0 0 Z " fill="#D63B2A" transform="translate(536,601)"/>
<path d="M0 0 C0.33 0 0.66 0 1 0 C1.03738281 0.60328125 1.07476562 1.2065625 1.11328125 1.828125 C1.56253341 7.99367772 1.56253341 7.99367772 5 13 C3.02 13.33 1.04 13.66 -1 14 C-0.67 9.38 -0.34 4.76 0 0 Z " fill="#CB4032" transform="translate(359,604)"/>
<path d="M0 0 C0.66 0 1.32 0 2 0 C2 0.99 2 1.98 2 3 C3.65 3 5.3 3 7 3 C4.04816899 5.95183101 1.04488053 6.08663988 -3 7 C-3 6.34 -3 5.68 -3 5 C-2.34 5 -1.68 5 -1 5 C-0.67 3.35 -0.34 1.7 0 0 Z " fill="#E0351F" transform="translate(790,504)"/>
<path d="M0 0 C2.29160319 -0.02692484 4.58329546 -0.04636124 6.875 -0.0625 C8.15117187 -0.07410156 9.42734375 -0.08570313 10.7421875 -0.09765625 C14 0 14 0 16 1 C15.67 1.99 15.34 2.98 15 4 C14.45859375 3.67257812 13.9171875 3.34515625 13.359375 3.0078125 C10.49280933 1.78335233 8.3547013 1.80107854 5.25 1.875 C4.26515625 1.89304687 3.2803125 1.91109375 2.265625 1.9296875 C1.51796875 1.95289063 0.7703125 1.97609375 0 2 C0 1.34 0 0.68 0 0 Z " fill="#DB3826" transform="translate(461,601)"/>
<path d="M0 0 C0.66 0.33 1.32 0.66 2 1 C3.53668865 1.22467831 5.07968054 1.40796805 6.625 1.5625 C7.44226563 1.64628906 8.25953125 1.73007812 9.1015625 1.81640625 C9.72804688 1.87699219 10.35453125 1.93757812 11 2 C11 2.33 11 2.66 11 3 C7.37 3.66 3.74 4.32 0 5 C-0.33 3.68 -0.66 2.36 -1 1 C-0.67 0.67 -0.34 0.34 0 0 Z " fill="#E85341" transform="translate(676,600)"/>
<path d="M0 0 C-0.639375 0.66 -1.27875 1.32 -1.9375 2 C-4.58912502 5.85690912 -4.68667121 8.37840033 -5 13 C-5.33 13 -5.66 13 -6 13 C-6 8.71 -6 4.42 -6 0 C-2 -1 -2 -1 0 0 Z " fill="#EE5B4E" transform="translate(343,482)"/>
<path d="M0 0 C0.33 0 0.66 0 1 0 C1 3.96 1 7.92 1 12 C1.99 12 2.98 12 4 12 C4 12.66 4 13.32 4 14 C2.35 14 0.7 14 -1 14 C-0.67 9.38 -0.34 4.76 0 0 Z " fill="#DF4E3B" transform="translate(440,616)"/>
<path d="M0 0 C0.66 1.32 1.32 2.64 2 4 C1.01 4.33 0.02 4.66 -1 5 C-1.33 6.98 -1.66 8.96 -2 11 C-2.66 10.67 -3.32 10.34 -4 10 C-3.52449439 8.51965236 -3.04448784 7.04074979 -2.5625 5.5625 C-2.29566406 4.73878906 -2.02882813 3.91507812 -1.75390625 3.06640625 C-1 1 -1 1 0 0 Z " fill="#EA4633" transform="translate(750,506)"/>
<path d="M0 0 C2.31 0 4.62 0 7 0 C7 0.99 7 1.98 7 3 C2.545 3.495 2.545 3.495 -2 4 C-1.34 2.68 -0.68 1.36 0 0 Z " fill="#EF513A" transform="translate(638,600)"/>
<path d="M0 0 C0.66 0 1.32 0 2 0 C2 1.98 2 3.96 2 6 C1.01 6.33 0.02 6.66 -1 7 C-2 4 -2 4 -1.0625 1.8125 C-0.5365625 0.9153125 -0.5365625 0.9153125 0 0 Z " fill="#E03E2A" transform="translate(580,618)"/>
<path d="M0 0 C0.66 0 1.32 0 2 0 C2.33 2.97 2.66 5.94 3 9 C2.01 9.33 1.02 9.66 0 10 C-1.125 5.25 -1.125 5.25 0 3 C0 2.01 0 1.02 0 0 Z " fill="#D03E2B" transform="translate(242,612)"/>
<path d="M0 0 C2.475 0.99 2.475 0.99 5 2 C5 2.99 5 3.98 5 5 C3.35 5.33 1.7 5.66 0 6 C0 4.02 0 2.04 0 0 Z " fill="#162023" transform="translate(514,599)"/>
<path d="M0 0 C0.33 0.99 0.66 1.98 1 3 C0.67 3.66 0.34 4.32 0 5 C1.98 4.67 3.96 4.34 6 4 C3 6 3 6 -1 6 C-2.75 3.5 -2.75 3.5 -4 1 C-2.68 0.67 -1.36 0.34 0 0 Z " fill="#E68779" transform="translate(787,506)"/>
<path d="M0 0 C1.74627478 2.61941217 2.38722388 4.03824877 3 7 C1.35 7 -0.3 7 -2 7 C-1.34 4.69 -0.68 2.38 0 0 Z " fill="#252B30" transform="translate(538,609)"/>
<path d="M0 0 C1.10844919 3.32534757 0.84454356 5.62182575 0 9 C-1.32 7.68 -2.64 6.36 -4 5 C-2.25 1.125 -2.25 1.125 0 0 Z " fill="#D03C2D" transform="translate(261,610)"/>
<path d="M0 0 C0 3 0 3 -2 6 C-2 6.66 -2 7.32 -2 8 C-3.32 7.67 -4.64 7.34 -6 7 C-4.77065985 3.31197956 -3.06140622 2.27643027 0 0 Z " fill="#12181B" transform="translate(475,524)"/>
<path d="M0 0 C0.99 0.33 1.98 0.66 3 1 C3 3.64 3 6.28 3 9 C0.9375 7.3125 0.9375 7.3125 -1 5 C-0.75 2.25 -0.75 2.25 0 0 Z " fill="#E86154" transform="translate(629,440)"/>
<path d="M0 0 C0.33 0 0.66 0 1 0 C1.02698189 1.62490954 1.04638757 3.24994633 1.0625 4.875 C1.07410156 5.77992188 1.08570313 6.68484375 1.09765625 7.6171875 C1 10 1 10 0 12 C-0.66 12 -1.32 12 -2 12 C-2 10.68 -2 9.36 -2 8 C-1.34 8 -0.68 8 0 8 C0 5.36 0 2.72 0 0 Z " fill="#ED4130" transform="translate(825,604)"/>
<path d="M0 0 C0.99 0.99 1.98 1.98 3 3 C2.85546875 5.48046875 2.85546875 5.48046875 2.1875 8.1875 C1.97480469 9.08855469 1.76210938 9.98960937 1.54296875 10.91796875 C1.27419922 11.94857422 1.27419922 11.94857422 1 13 C0.67 13 0.34 13 0 13 C0 8.71 0 4.42 0 0 Z " fill="#C83B28" transform="translate(478,604)"/>
<path d="M0 0 C1.65 0.33 3.3 0.66 5 1 C4.67 2.32 4.34 3.64 4 5 C1.525 4.01 1.525 4.01 -1 3 C-0.67 2.01 -0.34 1.02 0 0 Z " fill="#25262A" transform="translate(568,604)"/>
</svg>
